<svg width="14" height="16" viewBox="0 0 14 16" fill="none" xmlns="http://www.w3.org/2000/svg">
<path d="M6.99992 12.6667C7.13177 12.6667 7.26067 12.6276 7.3703 12.5544C7.47993 12.4811 7.56538 12.377 7.61584 12.2552C7.6663 12.1334 7.6795 11.9993 7.65378 11.87C7.62805 11.7407 7.56456 11.6219 7.47132 11.5287C7.37809 11.4354 7.2593 11.3719 7.12998 11.3462C7.00066 11.3205 6.86661 11.3337 6.7448 11.3842C6.62298 11.4346 6.51886 11.5201 6.44561 11.6297C6.37235 11.7393 6.33325 11.8682 6.33325 12.0001C6.33325 12.1769 6.40349 12.3465 6.52851 12.4715C6.65354 12.5965 6.82311 12.6667 6.99992 12.6667ZM10.3333 12.6667C10.4651 12.6667 10.594 12.6276 10.7036 12.5544C10.8133 12.4811 10.8987 12.377 10.9492 12.2552C10.9996 12.1334 11.0128 11.9993 10.9871 11.87C10.9614 11.7407 10.8979 11.6219 10.8047 11.5287C10.7114 11.4354 10.5926 11.3719 10.4633 11.3462C10.334 11.3205 10.1999 11.3337 10.0781 11.3842C9.95631 11.4346 9.85219 11.5201 9.77894 11.6297C9.70568 11.7393 9.66658 11.8682 9.66658 12.0001C9.66658 12.1769 9.73682 12.3465 9.86185 12.4715C9.98687 12.5965 10.1564 12.6667 10.3333 12.6667ZM10.3333 10.0001C10.4651 10.0001 10.594 9.96098 10.7036 9.88773C10.8133 9.81447 10.8987 9.71035 10.9492 9.58854C10.9996 9.46672 11.0128 9.33267 10.9871 9.20335C10.9614 9.07403 10.8979 8.95525 10.8047 8.86201C10.7114 8.76878 10.5926 8.70528 10.4633 8.67956C10.334 8.65383 10.1999 8.66704 10.0781 8.71749C9.95631 8.76795 9.85219 8.8534 9.77894 8.96303C9.70568 9.07267 9.66658 9.20156 9.66658 9.33342C9.66658 9.51023 9.73682 9.6798 9.86185 9.80482C9.98687 9.92984 10.1564 10.0001 10.3333 10.0001ZM6.99992 10.0001C7.13177 10.0001 7.26067 9.96098 7.3703 9.88773C7.47993 9.81447 7.56538 9.71035 7.61584 9.58854C7.6663 9.46672 7.6795 9.33267 7.65378 9.20335C7.62805 9.07403 7.56456 8.95525 7.47132 8.86201C7.37809 8.76878 7.2593 8.70528 7.12998 8.67956C7.00066 8.65383 6.86661 8.66704 6.7448 8.71749C6.62298 8.76795 6.51886 8.8534 6.44561 8.96303C6.37235 9.07267 6.33325 9.20156 6.33325 9.33342C6.33325 9.51023 6.40349 9.6798 6.52851 9.80482C6.65354 9.92984 6.82311 10.0001 6.99992 10.0001ZM11.6666 2.00008H10.9999V1.33341C10.9999 1.1566 10.9297 0.987034 10.8047 0.86201C10.6796 0.736986 10.5101 0.666748 10.3333 0.666748C10.1564 0.666748 9.98687 0.736986 9.86185 0.86201C9.73682 0.987034 9.66658 1.1566 9.66658 1.33341V2.00008H4.33325V1.33341C4.33325 1.1566 4.26301 0.987034 4.13799 0.86201C4.01297 0.736986 3.8434 0.666748 3.66658 0.666748C3.48977 0.666748 3.3202 0.736986 3.19518 0.86201C3.07016 0.987034 2.99992 1.1566 2.99992 1.33341V2.00008H2.33325C1.80282 2.00008 1.29411 2.2108 0.919038 2.58587C0.543966 2.96094 0.333252 3.46965 0.333252 4.00008V13.3334C0.333252 13.8638 0.543966 14.3726 0.919038 14.7476C1.29411 15.1227 1.80282 15.3334 2.33325 15.3334H11.6666C12.197 15.3334 12.7057 15.1227 13.0808 14.7476C13.4559 14.3726 13.6666 13.8638 13.6666 13.3334V4.00008C13.6666 3.46965 13.4559 2.96094 13.0808 2.58587C12.7057 2.2108 12.197 2.00008 11.6666 2.00008ZM12.3333 13.3334C12.3333 13.5102 12.263 13.6798 12.138 13.8048C12.013 13.9298 11.8434 14.0001 11.6666 14.0001H2.33325C2.15644 14.0001 1.98687 13.9298 1.86185 13.8048C1.73682 13.6798 1.66659 13.5102 1.66659 13.3334V7.33342H12.3333V13.3334ZM12.3333 6.00008H1.66659V4.00008C1.66659 3.82327 1.73682 3.6537 1.86185 3.52868C1.98687 3.40365 2.15644 3.33341 2.33325 3.33341H2.99992V4.00008C2.99992 4.17689 3.07016 4.34646 3.19518 4.47149C3.3202 4.59651 3.48977 4.66675 3.66658 4.66675C3.8434 4.66675 4.01297 4.59651 4.13799 4.47149C4.26301 4.34646 4.33325 4.17689 4.33325 4.00008V3.33341H9.66658V4.00008C9.66658 4.17689 9.73682 4.34646 9.86185 4.47149C9.98687 4.59651 10.1564 4.66675 10.3333 4.66675C10.5101 4.66675 10.6796 4.59651 10.8047 4.47149C10.9297 4.34646 10.9999 4.17689 10.9999 4.00008V3.33341H11.6666C11.8434 3.33341 12.013 3.40365 12.138 3.52868C12.263 3.6537 12.3333 3.82327 12.3333 4.00008V6.00008ZM3.66658 10.0001C3.79844 10.0001 3.92733 9.96098 4.03697 9.88773C4.1466 9.81447 4.23205 9.71035 4.2825 9.58854C4.33296 9.46672 4.34617 9.33267 4.32044 9.20335C4.29472 9.07403 4.23122 8.95525 4.13799 8.86201C4.04475 8.76878 3.92597 8.70528 3.79665 8.67956C3.66732 8.65383 3.53328 8.66704 3.41146 8.71749C3.28965 8.76795 3.18553 8.8534 3.11227 8.96303C3.03902 9.07267 2.99992 9.20156 2.99992 9.33342C2.99992 9.51023 3.07016 9.6798 3.19518 9.80482C3.3202 9.92984 3.48977 10.0001 3.66658 10.0001ZM3.66658 12.6667C3.79844 12.6667 3.92733 12.6276 4.03697 12.5544C4.1466 12.4811 4.23205 12.377 4.2825 12.2552C4.33296 12.1334 4.34617 11.9993 4.32044 11.87C4.29472 11.7407 4.23122 11.6219 4.13799 11.5287C4.04475 11.4354 3.92597 11.3719 3.79665 11.3462C3.66732 11.3205 3.53328 11.3337 3.41146 11.3842C3.28965 11.4346 3.18553 11.5201 3.11227 11.6297C3.03902 11.7393 2.99992 11.8682 2.99992 12.0001C2.99992 12.1769 3.07016 12.3465 3.19518 12.4715C3.3202 12.5965 3.48977 12.6667 3.66658 12.6667Z" fill="#B6B6B6"/>
</svg>
