<svg width="34" height="34" viewBox="0 0 34 34" fill="none" xmlns="http://www.w3.org/2000/svg">
<g clip-path="url(#clip0_13_751)">
<path d="M28.0897 9.36697L20.2697 1.52571C19.8557 1.09902 19.3602 0.759797 18.8127 0.528143C18.2652 0.296489 17.6767 0.177124 17.0822 0.177124C16.4876 0.177124 15.8992 0.296489 15.3516 0.528143C14.8041 0.759797 14.3087 1.09902 13.8947 1.52571L6.05341 9.36697L17.0397 14.8495L28.0897 9.36697ZM31.0902 12.5332L32.6414 14.0845C33.0708 14.4969 33.4124 14.9919 33.6457 15.5396C33.8791 16.0874 33.9993 16.6766 33.9993 17.272C33.9993 17.8673 33.8791 18.4566 33.6457 19.0043C33.4124 19.5521 33.0708 20.047 32.6414 20.4595L20.145 33.0791C19.8488 33.3821 19.504 33.6335 19.125 33.8229V18.5257L31.0902 12.5332ZM2.90841 12.5332L1.35716 14.0845C0.927808 14.4969 0.586207 14.9919 0.35286 15.5396C0.119512 16.0874 -0.000770569 16.6766 -0.000770569 17.272C-0.000770569 17.8673 0.119512 18.4566 0.35286 19.0043C0.586207 19.5521 0.927808 20.047 1.35716 20.4595L13.855 33.0791C14.1525 33.3823 14.4967 33.6345 14.875 33.8229V18.5257L2.90841 12.5332Z" fill="#FF9900"/>
</g>
<defs>
<clipPath id="clip0_13_751">
<rect width="34" height="34" fill="white"/>
</clipPath>
</defs>
</svg>
