<svg width="46" height="46" viewBox="0 0 46 46" fill="none" xmlns="http://www.w3.org/2000/svg">
<path d="M11.5 38.3333C10.957 38.3333 10.5014 38.1493 10.1334 37.7813C9.7667 37.4146 9.58334 36.9597 9.58334 36.4167V23H6.32501C5.87779 23 5.57431 22.7924 5.41459 22.3771C5.25487 21.9618 5.3507 21.6104 5.70209 21.3229L21.7063 6.90001C22.0576 6.54862 22.4889 6.37292 23 6.37292C23.5111 6.37292 23.9424 6.54862 24.2938 6.90001L40.2979 21.3229C40.6493 21.6104 40.7451 21.9618 40.5854 22.3771C40.4257 22.7924 40.1222 23 39.675 23H36.4167V36.4167C36.4167 36.9597 36.2327 37.4146 35.8647 37.7813C35.4979 38.1493 35.0431 38.3333 34.5 38.3333C33.957 38.3333 33.5021 38.1493 33.1353 37.7813C32.7673 37.4146 32.5833 36.9597 32.5833 36.4167V34.5H13.4167V36.4167C13.4167 36.9597 13.2333 37.4146 12.8666 37.7813C12.4986 38.1493 12.0431 38.3333 11.5 38.3333ZM18.1125 15.3333H27.8875L23 10.925L18.1125 15.3333ZM13.4167 23H32.5833V19.55L32.1521 19.1667H13.8479L13.4167 19.55V23ZM13.4167 30.6667H32.5833V26.8333H13.4167V30.6667Z" fill="#FF9900"/>
</svg>
