<svg width="34" height="34" viewBox="0 0 34 34" fill="none" xmlns="http://www.w3.org/2000/svg">
<path d="M16.6758 0.00286928C26.1081 -0.160764 33.8308 7.34624 33.9972 16.6825C34.1654 26.0982 26.7381 33.8054 17.3542 33.9965C7.86887 34.1894 0.139808 26.6824 0.00175642 17.2556C-0.136295 7.81154 7.35232 0.200326 16.6758 0.00286928ZM17.004 6.58201C11.2461 6.58567 6.58069 11.246 6.57703 16.9969C6.57338 22.7323 11.2388 27.4182 16.9574 27.4246C22.7446 27.431 27.4292 22.7524 27.421 16.9722C27.4146 11.246 22.7336 6.57835 17.004 6.58201ZM5.46531 16.6971C5.52839 16.1422 5.55765 15.6312 5.64724 15.1311C6.57338 9.96345 10.5129 6.22001 15.6967 5.55451C15.8301 5.53714 15.9911 5.43749 16.0697 5.32688C16.4893 4.72903 16.8788 4.11015 17.2975 3.51138C17.4182 3.33769 17.4017 3.22159 17.2893 3.05979C16.9071 2.50581 16.5323 1.94544 16.1702 1.37775C16.0578 1.20132 15.9399 1.13733 15.7278 1.15378C14.5392 1.24977 13.369 1.44906 12.2435 1.83757C6.37773 3.86424 2.75182 7.91027 1.40239 13.9665C1.20856 14.835 1.16468 15.7354 1.05131 16.6221C1.08697 16.6349 1.12171 16.6486 1.15737 16.6614C1.68672 16.3104 2.21607 15.9594 2.74633 15.6083C3.2638 15.2655 3.32322 15.2674 3.84617 15.6175C4.37278 15.9712 4.90304 16.3223 5.46531 16.6971ZM17.3057 5.46949C17.8643 5.53257 18.3763 5.56182 18.8773 5.65232C24.0529 6.58841 27.7666 10.4982 28.4495 15.7052C28.4669 15.8387 28.5702 15.9968 28.6808 16.0755C29.2787 16.4951 29.8949 16.8881 30.4974 17.3013C30.6492 17.4056 30.7598 17.4211 30.9207 17.3087C31.483 16.9183 32.0535 16.538 32.6313 16.1705C32.8105 16.0563 32.8663 15.9347 32.8489 15.7253C32.5938 12.6922 31.5753 9.94151 29.7432 7.51353C27.1897 4.12843 23.8033 2.06794 19.6279 1.32564C18.8856 1.19401 18.1267 1.15653 17.2747 1.0642C17.6943 1.69496 18.0463 2.22517 18.3983 2.75446C18.7347 3.26182 18.7347 3.31941 18.3983 3.82493C18.0408 4.36337 17.6833 4.9018 17.3057 5.46949ZM28.5336 17.3077C28.4687 17.8709 28.4404 18.3855 28.3471 18.8874C27.3899 24.0816 23.5117 27.7601 18.2886 28.4512C18.1642 28.4677 18.0143 28.5591 17.9421 28.6615C17.5169 29.2694 17.1165 29.8947 16.695 30.5053C16.5862 30.6635 16.5899 30.7732 16.6978 30.9286C17.0863 31.4917 17.4694 32.0603 17.836 32.639C17.9521 32.8218 18.0801 32.8657 18.2849 32.8492C20.7259 32.6499 23.0152 31.9497 25.1015 30.6717C29.4278 28.0207 31.9776 24.1675 32.7511 19.1498C32.8416 18.5629 32.8617 17.9659 32.922 17.2922C32.2747 17.7209 31.7079 18.0811 31.1594 18.4669C30.8403 18.6908 30.5688 18.6799 30.2543 18.4577C29.7066 18.0701 29.1389 17.71 28.5336 17.3077ZM16.6969 28.5344C16.1483 28.4741 15.6491 28.4439 15.1591 28.3607C10.0375 27.4923 6.21865 23.4975 5.55216 18.338C5.53205 18.1853 5.41777 18.0025 5.2916 17.9129C4.70557 17.497 4.09393 17.1167 3.50516 16.7044C3.32962 16.581 3.21351 16.6066 3.05352 16.7172C2.50863 17.0929 1.95916 17.4622 1.39873 17.8151C1.19942 17.9403 1.12994 18.0738 1.15097 18.3124C1.4417 21.6161 2.62474 24.5606 4.74031 27.1102C7.25906 30.1452 10.4854 31.9945 14.3683 32.6792C15.1115 32.8099 15.8713 32.8492 16.7243 32.9425C16.3056 32.3126 15.9536 31.7833 15.6025 31.254C15.2633 30.7421 15.2633 30.6863 15.5988 30.1835C15.9572 29.6451 16.3156 29.1067 16.6969 28.5344Z" fill="#FF9900"/>
<path d="M16.8953 23.6188C16.4336 23.5475 15.8805 23.4753 15.3329 23.372C14.9233 23.2952 14.756 23.117 14.8044 22.7111C14.8721 22.1407 14.6691 21.8207 14.1462 21.5757C13.8052 21.4157 13.5501 21.3454 13.2456 21.5839C13.1487 21.6607 13.0271 21.7064 12.9165 21.7659C12.6642 21.9012 12.432 21.8719 12.2263 21.6735C11.3586 20.8398 10.768 19.8388 10.4453 18.6806C10.3639 18.3881 10.4572 18.1266 10.7351 18.0261C11.3504 17.8039 11.5579 17.4127 11.483 16.7636C11.451 16.4866 11.3998 16.3486 11.1593 16.2206C10.3073 15.7681 10.2844 15.6804 10.6218 14.7781C10.9628 13.8658 11.4811 13.0705 12.1732 12.3839C12.4055 12.1536 12.6843 12.043 12.9348 12.2596C13.5318 12.7752 14.0621 12.5503 14.5786 12.1627C14.6911 12.0786 14.7843 11.8876 14.7843 11.7459C14.7825 10.8153 14.7377 10.722 15.8311 10.5255C16.8021 10.3509 17.7629 10.4021 18.7174 10.637C19.0146 10.7101 19.2477 10.8875 19.1965 11.2065C19.0904 11.8665 19.3611 12.2377 19.9599 12.4845C20.2205 12.5914 20.4042 12.6271 20.652 12.4854C21.4885 12.0064 21.5415 12.021 22.1861 12.7633C22.816 13.4891 23.2667 14.3137 23.5273 15.2407C23.6352 15.6237 23.5812 15.8595 23.221 16.0021C22.6533 16.227 22.4558 16.5717 22.5152 17.1878C22.5463 17.5068 22.603 17.6897 22.8855 17.8058C22.9906 17.8487 23.0875 17.9118 23.1863 17.9685C23.5693 18.1888 23.6443 18.3698 23.5218 18.7857C23.2009 19.8827 22.6286 20.8279 21.8158 21.6306C21.5937 21.85 21.323 21.9533 21.0808 21.7521C20.5222 21.2887 20.0211 21.4075 19.4872 21.786C19.3117 21.9103 19.1956 22.0118 19.2047 22.2394C19.2422 23.2285 19.2257 23.2898 18.1524 23.4781C17.7703 23.5466 17.3808 23.5667 16.8953 23.6188ZM11.5589 18.815C11.9374 19.4412 12.2967 20.0354 12.655 20.6287C12.7949 20.5665 12.8489 20.5491 12.8973 20.5208C13.4669 20.1807 14.0228 20.2081 14.5713 20.5729C14.6947 20.6543 14.8255 20.7274 14.9599 20.7877C15.5587 21.0583 15.8842 21.5035 15.9006 22.1736C15.9025 22.2558 16.025 22.3985 16.1008 22.4049C16.5543 22.4442 17.0124 22.4816 17.4658 22.4624C18.0354 22.4378 18.0345 22.414 18.1387 21.8591C18.3325 20.8307 20.0211 19.9833 20.9592 20.4431C21.0606 20.4924 21.1603 20.5446 21.3413 20.636C21.7061 20.029 22.0654 19.4329 22.4393 18.8104C22.155 18.6514 21.9621 18.5343 21.76 18.4329C21.4574 18.2811 21.3468 18.0572 21.3715 17.7116C21.4053 17.2372 21.4017 16.7563 21.3706 16.281C21.3495 15.9509 21.4483 15.7306 21.739 15.5825C21.9493 15.4747 22.1523 15.3531 22.4412 15.1904C22.0627 14.5633 21.7034 13.9682 21.345 13.3749C21.2051 13.4361 21.1512 13.4544 21.1027 13.4827C20.5331 13.821 19.9773 13.7963 19.4287 13.4306C19.3053 13.3484 19.1764 13.2725 19.0411 13.2131C18.4386 12.947 18.1168 12.5009 18.0976 11.83C18.0948 11.7459 17.9531 11.6023 17.8663 11.5941C17.4247 11.5539 16.9776 11.5201 16.5351 11.5393C15.9637 11.5639 15.9655 11.5868 15.8604 12.1426C15.6657 13.171 13.9798 14.0193 13.0409 13.5595C12.9394 13.5102 12.8397 13.4581 12.6587 13.3676C12.2939 13.9736 11.9355 14.5697 11.5607 15.1922C11.8441 15.3513 12.037 15.4701 12.2391 15.5707C12.5426 15.7215 12.6514 15.9473 12.6276 16.2919C12.5947 16.7673 12.5984 17.2472 12.6276 17.7226C12.6486 18.0517 12.5499 18.2729 12.2592 18.4219C12.0571 18.5261 11.8624 18.644 11.5589 18.815Z" fill="#FF9900"/>
<path d="M17.0087 14.3293C18.5236 14.3375 19.7451 15.5716 19.7414 17.0909C19.7377 18.5993 18.4907 19.8242 16.9712 19.8114C15.4591 19.7986 14.2431 18.5545 14.2568 17.0342C14.2715 15.5396 15.5103 14.3219 17.0087 14.3293ZM17.0105 15.4281C16.1137 15.4235 15.3695 16.1502 15.3558 17.0434C15.342 17.9548 16.0771 18.7062 16.9895 18.7154C17.8818 18.7236 18.6333 17.9895 18.6443 17.1C18.6544 16.1859 17.9184 15.4326 17.0105 15.4281Z" fill="#FF9900"/>
</svg>
