<svg width="8" height="7" viewBox="0 0 8 7" fill="none" xmlns="http://www.w3.org/2000/svg">
<path d="M5.05101 6.5528V5.04578C5.0613 4.96585 5.05313 4.88462 5.02712 4.80835C5.00111 4.73208 4.95795 4.66282 4.90097 4.60583C4.84399 4.54885 4.7747 4.50569 4.69843 4.47968C4.62215 4.45366 4.54094 4.44546 4.46101 4.45575H3.50501C3.43178 4.45124 3.35843 4.46236 3.28979 4.48828C3.22116 4.5142 3.1588 4.55436 3.10682 4.60614C3.05485 4.65792 3.01445 4.72016 2.98828 4.7887C2.96211 4.85724 2.95077 4.93054 2.95501 5.00378C2.95501 5.48278 2.95501 5.96277 2.95501 6.44177V6.54675C2.91901 6.54675 2.89001 6.55176 2.86101 6.55176H1.42201C1.34669 6.55787 1.27095 6.54764 1.19997 6.52173C1.12899 6.49582 1.06445 6.45487 1.01078 6.40167C0.957109 6.34848 0.915581 6.28431 0.889039 6.21356C0.862498 6.14281 0.851572 6.06713 0.857011 5.99176C0.857011 5.10443 0.857011 4.2181 0.857011 3.33276C0.854148 3.29499 0.864778 3.25741 0.88701 3.22675C1.09301 3.02675 1.30901 2.84378 1.51101 2.64478C2.31501 1.85211 3.11735 1.05747 3.91801 0.260803C3.94301 0.235803 3.97001 0.210748 4.01801 0.166748C4.11001 0.266748 4.19501 0.36675 4.28701 0.45575C5.16101 1.32242 6.03601 2.18912 6.91201 3.05579C6.94559 3.0946 6.98467 3.12827 7.02801 3.15576C7.07201 3.1774 7.1079 3.2126 7.1304 3.25616C7.1529 3.29973 7.16083 3.34936 7.15301 3.39777C7.15301 4.25677 7.15301 5.11579 7.15301 5.97479C7.16054 6.05239 7.15073 6.13064 7.12429 6.20398C7.09785 6.27732 7.05543 6.34387 7.00012 6.3988C6.9448 6.45374 6.87796 6.49573 6.80444 6.52167C6.73092 6.5476 6.65255 6.55684 6.57501 6.54877H5.05501L5.05101 6.5528Z" fill="#FF9900"/>
</svg>
