<svg width="17" height="17" viewBox="0 0 17 17" fill="none" xmlns="http://www.w3.org/2000/svg">
<path d="M8.016 16.0711C12.4431 16.0711 16.032 12.4822 16.032 8.05506C16.032 3.62795 12.4431 0.0390625 8.016 0.0390625C3.58889 0.0390625 0 3.62795 0 8.05506C0 12.4822 3.58889 16.0711 8.016 16.0711Z" fill="#FB7712" fill-opacity="0.29"/>
<path d="M8.0112 3.37811C8.78773 3.37578 9.53795 3.65928 10.1189 4.17455C10.6998 4.68983 11.0708 5.40086 11.1612 6.17211C11.2099 6.7014 11.1545 7.23509 10.9982 7.7431C10.733 8.6175 10.3637 9.45686 9.8982 10.2431C9.46444 11.0073 8.98699 11.7459 8.4682 12.4551C8.4227 12.5381 8.35571 12.6074 8.27425 12.6556C8.1928 12.7039 8.09987 12.7293 8.0052 12.7293C7.91053 12.7293 7.81761 12.7039 7.73615 12.6556C7.6547 12.6074 7.58771 12.5381 7.5422 12.4551C6.74861 11.3781 6.06297 10.2255 5.4952 9.01409C5.20945 8.41705 5.00754 7.7834 4.8952 7.1311C4.78339 6.55459 4.83586 5.95827 5.04662 5.41015C5.25738 4.86203 5.61795 4.3842 6.0872 4.03112C6.6356 3.60096 7.31427 3.37061 8.0112 3.37811V3.37811ZM9.5672 6.5371C9.56865 6.33552 9.53038 6.13564 9.45458 5.94885C9.37877 5.76206 9.26692 5.59204 9.1254 5.44848C8.98388 5.30492 8.81547 5.19065 8.62979 5.11218C8.44411 5.0337 8.24478 4.99252 8.0432 4.99108C7.63614 4.98921 7.2449 5.14861 6.95501 5.43438C6.66512 5.72015 6.50016 6.10906 6.4962 6.51611C6.49487 6.92316 6.65475 7.31418 6.94089 7.60369C7.22703 7.89321 7.61616 8.05766 8.0232 8.06109C8.22483 8.06307 8.42486 8.02516 8.61178 7.94952C8.79869 7.87388 8.9688 7.762 9.11231 7.62036C9.25581 7.47871 9.36988 7.31011 9.44795 7.1242C9.52602 6.93829 9.56655 6.73874 9.5672 6.5371V6.5371Z" fill="#FB7712"/>
</svg>
