<svg width="31" height="34" viewBox="0 0 31 34" fill="none" xmlns="http://www.w3.org/2000/svg">
<g clip-path="url(#clip0_13_917)">
<path d="M16.0345 33.4688V23.375C16.0345 23.0818 15.8923 22.3125 15.5973 22.3125C15.3022 22.3125 14.9655 22.5505 14.9655 22.8438V33.4688C14.9655 33.762 15.3012 34 15.5973 34C15.8934 34 16.0345 33.762 16.0345 33.4688ZM16.1318 1.65963V0.53125C16.1318 0.390354 16.0754 0.255228 15.9752 0.1556C15.875 0.0559708 15.739 0 15.5973 0C15.4555 0 15.3196 0.0559708 15.2193 0.1556C15.1191 0.255228 15.0628 0.390354 15.0628 0.53125V1.65963C15.0628 1.80052 15.1191 1.93565 15.2193 2.03528C15.3196 2.1349 15.4555 2.19088 15.5973 2.19088C15.739 2.19088 15.875 2.1349 15.9752 2.03528C16.0754 1.93565 16.1318 1.80052 16.1318 1.65963ZM4.15828 3.68794L0.345276 6.66081C0.237091 6.75972 0.150592 6.87975 0.0911837 7.01338C0.0317753 7.14702 0.000734145 7.2914 0 7.4375C0 7.72969 0.126138 8.01338 0.378414 8.24288L4.12514 11.1594C4.45331 11.4601 5.03803 11.6875 5.48593 11.6875H20.2676C20.8801 11.6875 21.3793 11.1956 21.3793 10.5899V4.28506C21.3793 3.67944 20.8801 3.1875 20.2676 3.1875H5.48593C5.03803 3.1875 4.45331 3.41488 4.15828 3.68794ZM20.3103 10.5899C20.3103 10.6059 20.2911 10.625 20.2676 10.625H5.48593C5.30421 10.625 4.98245 10.5007 4.81783 10.3509L1.03797 7.46831L4.8499 4.49544C4.98352 4.37431 5.30421 4.25 5.48593 4.25L20.3103 4.28506V10.5899ZM26.8749 13.2781C26.5467 12.9774 25.962 12.75 25.5141 12.75H10.7324C10.1199 12.75 9.62069 13.2419 9.62069 13.8476V20.1535C9.62069 20.7581 10.1199 21.25 10.7324 21.25H25.5141C25.962 21.25 26.5467 21.0226 26.8428 20.7496L30.6547 17.7767C30.7629 17.6778 30.8494 17.5578 30.9088 17.4241C30.9682 17.2905 30.9993 17.1461 31 17C30.9978 16.8468 30.9629 16.6958 30.8977 16.557C30.8325 16.4182 30.7384 16.2947 30.6216 16.1946L26.8749 13.2781ZM10.6897 13.8125H25.5141C25.6958 13.8125 26.0176 13.9368 26.1822 14.0866L29.962 16.9692L26.1501 19.9421C25.9662 20.0829 25.7454 20.1681 25.5141 20.1875H10.6897V13.8125Z" fill="#FF9900" stroke="#FF9900" stroke-width="0.5"/>
</g>
<defs>
<clipPath id="clip0_13_917">
<rect width="31" height="34" fill="white"/>
</clipPath>
</defs>
</svg>
