<?xml version="1.0" standalone="no"?>
<!DOCTYPE svg PUBLIC "-//W3C//DTD SVG 20010904//EN"
 "http://www.w3.org/TR/2001/REC-SVG-20010904/DTD/svg10.dtd">
<svg version="1.0" xmlns="http://www.w3.org/2000/svg"
 width="1280.000000pt" height="860.000000pt" viewBox="0 0 1280.000000 860.000000"
 preserveAspectRatio="xMidYMid meet">
<metadata>
Created by potrace 1.15, written by Peter Selinger 2001-2017
</metadata>
<g transform="translate(0.000000,860.000000) scale(0.100000,-0.100000)"
fill="#000000" stroke="none">
<path d="M4424 8566 l-34 -34 2 -3361 c2 -2514 6 -3363 14 -3371 9 -9 73 -4
260 19 332 41 631 68 904 81 124 7 235 14 248 16 l22 4 0 615 0 614 25 79 c61
193 221 335 426 378 235 50 490 -70 603 -285 67 -127 66 -119 66 -793 l0 -608
23 -4 c12 -3 87 -7 167 -11 283 -12 864 -67 1143 -108 l88 -13 15 27 c12 24
14 486 12 3379 l-3 3352 -33 29 -32 29 -1941 0 -1941 0 -34 -34z m975 -342
c20 -25 21 -39 21 -284 0 -245 -1 -259 -21 -284 l-20 -26 -274 0 -274 0 -20
26 c-20 25 -21 39 -21 284 0 245 1 259 21 284 l20 26 274 0 274 0 20 -26z
m1291 6 c19 -19 20 -33 20 -290 0 -257 -1 -271 -20 -290 -19 -19 -33 -20 -290
-20 -257 0 -271 1 -290 20 -19 19 -20 33 -20 288 0 226 2 271 16 290 15 22 17
22 290 22 261 0 275 -1 294 -20z m1300 -7 c20 -26 21 -35 18 -291 -3 -264 -3
-264 -27 -283 -22 -18 -42 -19 -291 -19 l-269 0 -20 26 c-20 25 -21 39 -21
281 0 250 4 285 34 305 6 4 133 8 283 8 l272 0 21 -27z m-2591 -1079 c20 -25
21 -39 21 -284 0 -245 -1 -259 -21 -284 l-20 -26 -274 0 -274 0 -20 26 c-20
25 -21 39 -21 284 0 245 1 259 21 284 l20 26 274 0 274 0 20 -26z m1291 6 c19
-19 20 -33 20 -290 0 -257 -1 -271 -20 -290 -19 -19 -33 -20 -290 -20 -257 0
-271 1 -290 20 -19 19 -20 33 -20 290 0 257 1 271 20 290 19 19 33 20 290 20
257 0 271 -1 290 -20z m1299 -6 c20 -25 21 -39 21 -284 0 -245 -1 -259 -21
-284 l-20 -26 -274 0 -274 0 -20 26 c-20 25 -21 39 -21 284 0 245 1 259 21
284 l20 26 274 0 274 0 20 -26z m-2590 -1080 c20 -25 21 -39 21 -284 0 -245
-1 -259 -21 -284 l-20 -26 -274 0 -274 0 -20 26 c-20 25 -21 39 -21 284 0 245
1 259 21 284 l20 26 274 0 274 0 20 -26z m1291 6 c19 -19 20 -33 20 -290 0
-257 -1 -271 -20 -290 -19 -19 -33 -20 -290 -20 -257 0 -271 1 -290 20 -19 19
-20 33 -20 290 0 257 1 271 20 290 19 19 33 20 290 20 257 0 271 -1 290 -20z
m1299 -6 c20 -25 21 -39 21 -284 0 -245 -1 -259 -21 -284 l-20 -26 -274 0
-274 0 -20 26 c-20 25 -21 39 -21 284 0 245 1 259 21 284 l20 26 274 0 274 0
20 -26z m-2590 -1080 c20 -25 21 -39 21 -284 0 -245 -1 -259 -21 -284 l-20
-26 -274 0 -274 0 -20 26 c-20 25 -21 39 -21 284 0 245 1 259 21 284 l20 26
274 0 274 0 20 -26z m1291 6 c19 -19 20 -33 20 -290 0 -257 -1 -271 -20 -290
-19 -19 -33 -20 -290 -20 -257 0 -271 1 -290 20 -19 19 -20 33 -20 290 0 257
1 271 20 290 19 19 33 20 290 20 257 0 271 -1 290 -20z m1295 -5 l25 -24 0
-259 c0 -247 -1 -261 -21 -286 l-20 -26 -274 0 -274 0 -20 26 c-20 25 -21 39
-21 284 0 245 1 259 21 284 l20 26 270 0 270 0 24 -25z m-2590 -1080 l25 -24
0 -259 c0 -247 -1 -261 -21 -286 l-20 -26 -274 0 -274 0 -20 26 c-20 25 -21
39 -21 286 l0 259 25 24 24 25 266 0 266 0 24 -25z m2586 6 c24 -19 24 -19 27
-283 3 -256 2 -265 -18 -291 l-21 -27 -274 0 c-269 0 -275 0 -295 22 -19 21
-20 34 -20 284 0 249 1 263 21 288 l20 26 269 0 c249 0 269 -1 291 -19z
m-2582 -1057 c20 -25 21 -39 21 -286 l0 -259 -25 -24 -24 -25 -266 0 -266 0
-24 25 -25 24 0 259 c0 247 1 261 21 286 l20 26 274 0 274 0 20 -26z m2591 -1
c20 -26 21 -35 18 -291 -3 -264 -3 -264 -27 -283 -22 -18 -42 -19 -291 -19
l-269 0 -20 26 c-20 25 -21 39 -21 288 0 250 1 263 20 284 20 22 26 22 295 22
l274 0 21 -27z"/>
<path d="M3390 5529 c-290 -51 -546 -268 -641 -542 -16 -45 -29 -90 -29 -100
0 -12 -16 -25 -47 -39 -195 -86 -335 -248 -388 -448 -18 -65 -24 -235 -11
-276 6 -20 7 -20 74 -3 226 59 490 -29 629 -210 l38 -49 100 1 c168 1 277 -43
390 -157 112 -113 155 -217 155 -371 0 -129 -31 -222 -105 -319 l-35 -46 6
-298 c7 -326 -4 -593 -37 -857 -11 -88 -22 -168 -25 -177 -3 -10 -3 -18 0 -18
3 0 67 13 144 29 76 17 212 44 302 61 90 17 165 32 167 34 2 2 -8 72 -22 157
-57 354 -92 826 -79 1057 6 119 7 123 28 118 66 -16 158 -27 204 -24 l52 3 0
1054 0 1053 -35 49 c-97 131 -281 248 -470 299 -92 25 -279 34 -365 19z"/>
<path d="M2443 3956 c-171 -42 -340 -207 -369 -363 -5 -26 -15 -36 -62 -59
-110 -54 -190 -163 -214 -292 -31 -165 68 -353 221 -424 47 -21 47 -21 58 -87
21 -131 90 -228 201 -283 62 -31 73 -33 169 -33 l102 0 7 -54 c4 -30 4 -170 1
-310 -6 -258 -21 -408 -57 -575 -11 -49 -19 -90 -17 -92 1 -1 433 120 443 125
1 1 -7 41 -17 90 -55 269 -101 816 -71 856 4 6 57 10 122 10 109 0 119 2 182
32 88 41 160 113 201 201 30 62 32 75 33 179 l1 112 37 42 c180 211 110 542
-142 667 -70 34 -83 37 -181 40 l-106 4 -30 40 c-109 144 -327 219 -512 174z"/>
<path d="M8896 3521 c-42 -65 -46 -77 -46 -131 l0 -60 -80 0 -80 0 0 -90 0
-90 80 0 80 0 0 -725 0 -725 23 -5 c12 -3 52 -11 90 -19 l67 -14 0 744 0 744
150 0 150 0 0 -80 0 -80 -65 0 c-53 0 -66 -3 -75 -19 -6 -12 -10 -133 -10
-324 0 -282 1 -305 18 -320 17 -15 71 -17 570 -17 487 0 552 2 566 16 14 13
16 57 16 328 0 229 -3 315 -12 324 -7 7 -38 12 -70 12 l-58 0 0 80 0 80 93 0
92 0 69 46 69 46 -69 44 -69 43 -682 1 -683 0 0 65 c0 61 -3 70 -44 131 l-44
66 -46 -71z m1274 -451 l0 -80 -405 0 -405 0 0 80 0 80 405 0 405 0 0 -80z
m-305 -214 c31 -13 35 -19 35 -50 0 -39 -5 -43 -34 -21 -26 19 -70 19 -90 0
-18 -19 -32 -83 -20 -95 5 -5 29 -10 54 -12 40 -3 45 -6 45 -28 0 -23 -5 -25
-50 -30 l-50 -5 -3 -57 -3 -57 78 -3 78 -3 3 -32 3 -33 -146 0 -146 0 3 33 c2
25 8 33 26 35 21 3 23 8 20 60 -3 50 -6 57 -25 60 -18 3 -23 10 -23 33 0 24 4
29 25 29 23 0 25 3 25 49 0 109 93 169 195 127z"/>
<path d="M5820 1720 c-1882 -67 -3729 -498 -5480 -1280 -286 -128 -308 -139
-324 -162 -22 -31 -20 -70 4 -100 36 -47 61 -43 230 34 1558 711 3156 1141
4785 1287 1454 131 2908 33 4345 -295 1060 -242 2209 -653 3182 -1140 70 -35
141 -64 157 -64 34 0 81 48 81 84 0 47 -33 69 -284 192 -1731 845 -3622 1335
-5526 1434 -278 14 -906 20 -1170 10z"/>
</g>
</svg>
