<svg width="9" height="15" viewBox="0 0 9 15" fill="none" xmlns="http://www.w3.org/2000/svg">
<path id="Vector" d="M0.311778 14.7036C0.103926 14.5059 0 14.2719 0 14.0016C0 13.7318 0.103926 13.498 0.311778 13.3004L6.40185 7.50988L0.290993 1.6996C0.0969976 1.51515 0 1.28459 0 1.00791C0 0.731225 0.103926 0.494071 0.311778 0.296443C0.51963 0.0988142 0.765727 0 1.05007 0C1.33386 0 1.57968 0.0988142 1.78753 0.296443L8.77136 6.95652C8.8545 7.03557 8.91353 7.12121 8.94845 7.21344C8.98282 7.30567 9 7.40448 9 7.50988C9 7.61528 8.98282 7.7141 8.94845 7.80632C8.91353 7.89855 8.8545 7.98419 8.77136 8.06324L1.76674 14.7233C1.57275 14.9078 1.33386 15 1.05007 15C0.765727 15 0.51963 14.9012 0.311778 14.7036Z" fill="#FF9900"/>
</svg>
