<svg width="19" height="19" viewBox="0 0 19 19" fill="none" xmlns="http://www.w3.org/2000/svg">
<g clip-path="url(#clip0_40_1089)">
<path d="M17.158 14.688C16.649 14.2343 16.2034 13.7142 15.8332 13.1416C15.4291 12.3513 15.1868 11.4882 15.1207 10.603V7.9958C15.1242 6.60542 14.6199 5.26163 13.7025 4.21689C12.785 3.17216 11.5177 2.49839 10.1385 2.32218V1.64135C10.1385 1.45448 10.0643 1.27527 9.93214 1.14314C9.8 1.011 9.62079 0.936768 9.43392 0.936768C9.24706 0.936768 9.06784 1.011 8.93571 1.14314C8.80357 1.27527 8.72934 1.45448 8.72934 1.64135V2.33274C7.36253 2.52165 6.11049 3.19949 5.20512 4.24071C4.29975 5.28194 3.80239 6.616 3.80517 7.9958V10.603C3.73907 11.4882 3.49684 12.3513 3.09267 13.1416C2.72897 13.7129 2.29056 14.2329 1.78906 14.688C1.73277 14.7375 1.68765 14.7984 1.65671 14.8666C1.62577 14.9349 1.60971 15.0089 1.60962 15.0839V15.8016C1.60962 15.9416 1.66522 16.0758 1.7642 16.1748C1.86318 16.2738 1.99742 16.3294 2.1374 16.3294H16.8096C16.9496 16.3294 17.0838 16.2738 17.1828 16.1748C17.2818 16.0758 17.3374 15.9416 17.3374 15.8016V15.0839C17.3373 15.0089 17.3213 14.9349 17.2903 14.8666C17.2594 14.7984 17.2142 14.7375 17.158 14.688ZM2.7074 15.2739C3.19845 14.7995 3.6308 14.2679 3.99517 13.6905C4.50428 12.736 4.80132 11.6829 4.86601 10.603V7.9958C4.84508 7.37726 4.94883 6.76084 5.17109 6.18323C5.39335 5.60563 5.72956 5.07865 6.15972 4.63369C6.58988 4.18873 7.10518 3.83488 7.67494 3.59322C8.24469 3.35155 8.85726 3.22701 9.47615 3.22701C10.095 3.22701 10.7076 3.35155 11.2774 3.59322C11.8471 3.83488 12.3624 4.18873 12.7926 4.63369C13.2227 5.07865 13.5589 5.60563 13.7812 6.18323C14.0035 6.76084 14.1072 7.37726 14.0863 7.9958V10.603C14.151 11.6829 14.448 12.736 14.9571 13.6905C15.3215 14.2679 15.7538 14.7995 16.2449 15.2739H2.7074Z" fill="#FF9900"/>
<path d="M9.50002 18.0922C9.83248 18.0846 10.1515 17.9596 10.4007 17.7394C10.6499 17.5192 10.8132 17.2179 10.8617 16.8889H8.08557C8.13543 17.2269 8.30635 17.5352 8.56654 17.7565C8.82672 17.9779 9.15845 18.0972 9.50002 18.0922Z" fill="#FF9900"/>
</g>
<defs>
<clipPath id="clip0_40_1089">
<rect width="19" height="19" fill="white"/>
</clipPath>
</defs>
</svg>
