<svg width="11" height="10" viewBox="0 0 11 10" fill="none" xmlns="http://www.w3.org/2000/svg">
<path d="M1.39575 8.70825H10.1041" stroke="#FF9900" stroke-miterlimit="10" stroke-linecap="round" stroke-linejoin="round"/>
<path d="M8.82959 8.71245V6.94702" stroke="#FF9900" stroke-miterlimit="10" stroke-linecap="round" stroke-linejoin="round"/>
<path d="M8.83764 4.31055C8.35472 4.31055 7.9668 4.69847 7.9668 5.18139V6.07991C7.9668 6.56283 8.35472 6.95075 8.83764 6.95075C9.32055 6.95075 9.70847 6.56283 9.70847 6.07991V5.18139C9.70847 4.69847 9.32055 4.31055 8.83764 4.31055Z" stroke="#FF9900" stroke-miterlimit="10" stroke-linecap="round" stroke-linejoin="round"/>
<path d="M1.8313 8.70852V2.38707C1.8313 1.59145 2.22715 1.19165 3.01486 1.19165H5.48089C6.2686 1.19165 6.66047 1.59145 6.66047 2.38707V8.70852" stroke="#FF9900" stroke-miterlimit="10" stroke-linecap="round" stroke-linejoin="round"/>
<path d="M3.2959 3.26562H5.25528" stroke="#FF9900" stroke-miterlimit="10" stroke-linecap="round" stroke-linejoin="round"/>
<path d="M3.2959 4.75H5.25528" stroke="#FF9900" stroke-miterlimit="10" stroke-linecap="round" stroke-linejoin="round"/>
<path d="M4.26562 8.70825V7.22388" stroke="#FF9900" stroke-miterlimit="10" stroke-linecap="round" stroke-linejoin="round"/>
</svg>
