<svg width="9" height="9" viewBox="0 0 9 9" fill="none" xmlns="http://www.w3.org/2000/svg">
<path fill-rule="evenodd" clip-rule="evenodd" d="M0.28125 4.21875C0.28125 4.06342 0.40717 3.9375 0.5625 3.9375H8.4375C8.59283 3.9375 8.71875 4.06342 8.71875 4.21875C8.71875 4.37408 8.59283 4.5 8.4375 4.5H0.5625C0.40717 4.5 0.28125 4.37408 0.28125 4.21875Z" fill="#FF9900"/>
<path fill-rule="evenodd" clip-rule="evenodd" d="M6.46875 6.1875C6.62408 6.1875 6.75 6.31342 6.75 6.46875L6.75 7.3125L7.59375 7.3125V6.46875C7.59375 6.31342 7.71967 6.1875 7.875 6.1875C8.03033 6.1875 8.15625 6.31342 8.15625 6.46875V7.3125C8.15625 7.46168 8.09699 7.60476 7.9915 7.71025C7.88601 7.81574 7.74293 7.875 7.59375 7.875H6.75C6.60082 7.875 6.45774 7.81574 6.35225 7.71025C6.24676 7.60476 6.1875 7.46168 6.1875 7.3125V6.46875C6.1875 6.31342 6.31342 6.1875 6.46875 6.1875Z" fill="#FF9900"/>
<path fill-rule="evenodd" clip-rule="evenodd" d="M1.125 6.1875C1.28033 6.1875 1.40625 6.31342 1.40625 6.46875V7.3125H2.25V6.46875C2.25 6.31342 2.37592 6.1875 2.53125 6.1875C2.68658 6.1875 2.8125 6.31342 2.8125 6.46875V7.3125C2.8125 7.46168 2.75324 7.60476 2.64775 7.71025C2.54226 7.81574 2.39918 7.875 2.25 7.875H1.40625C1.25707 7.875 1.11399 7.81574 1.0085 7.71025C0.903013 7.60476 0.84375 7.46168 0.84375 7.3125V6.46875C0.84375 6.31342 0.96967 6.1875 1.125 6.1875Z" fill="#FF9900"/>
<path fill-rule="evenodd" clip-rule="evenodd" d="M1.96875 5.34375C1.96875 5.18842 2.09467 5.0625 2.25 5.0625H2.8125C2.96783 5.0625 3.09375 5.18842 3.09375 5.34375C3.09375 5.49908 2.96783 5.625 2.8125 5.625H2.25C2.09467 5.625 1.96875 5.49908 1.96875 5.34375Z" fill="#FF9900"/>
<path fill-rule="evenodd" clip-rule="evenodd" d="M5.90625 5.34375C5.90625 5.18842 6.03217 5.0625 6.1875 5.0625H6.75C6.90533 5.0625 7.03125 5.18842 7.03125 5.34375C7.03125 5.49908 6.90533 5.625 6.75 5.625H6.1875C6.03217 5.625 5.90625 5.49908 5.90625 5.34375Z" fill="#FF9900"/>
<path fill-rule="evenodd" clip-rule="evenodd" d="M2.43281 1.40625H6.56832C6.67738 1.40669 6.78397 1.43883 6.8751 1.49875C6.96591 1.55846 7.03748 1.6432 7.08115 1.74272C7.0813 1.74306 7.08145 1.74341 7.0816 1.74375L8.13196 4.10442C8.14798 4.14041 8.15625 4.17936 8.15625 4.21875V6.46875C8.15625 6.62408 8.03033 6.75 7.875 6.75H1.125C0.96967 6.75 0.84375 6.62408 0.84375 6.46875V4.21875C0.84375 4.17936 0.852025 4.14041 0.868038 4.10442L1.91887 1.74267C1.96254 1.64318 2.0341 1.55845 2.1249 1.49875C2.21603 1.43883 2.32262 1.40669 2.43168 1.40625L2.43281 1.40625ZM2.43394 1.96875L2.43314 1.97059L1.40625 4.2785V6.1875H7.59375V4.2785L6.56605 1.96875L2.43394 1.96875Z" fill="#FF9900"/>
</svg>
