<svg width="10" height="7" viewBox="0 0 10 7" fill="none" xmlns="http://www.w3.org/2000/svg">
<path d="M0.000260412 0.816186C0.0161456 0.763168 0.0307286 0.709885 0.0479158 0.657662C0.178903 0.258435 0.534366 0.00129697 0.964046 0.000766792C2.11585 -0.000558662 3.26791 0.00023661 4.41972 0.00023661C5.95563 0.00023661 7.49154 -0.000558662 9.02745 0.000766792C9.53369 0.00103188 9.91207 0.328949 9.99045 0.832357C9.99957 0.890677 9.99957 0.951117 9.99957 1.0105C10.0001 2.66997 10.0001 4.3297 9.99983 5.98917C9.99983 6.59145 9.59958 6.99969 9.00792 6.99969C6.33635 7.00022 3.66478 6.99996 0.993212 6.99969C0.482023 6.99969 0.135414 6.71764 0.0153643 6.20787C0.013281 6.19912 0.00520824 6.19196 0 6.18401C0.000260412 4.39491 0.000260412 2.60555 0.000260412 0.816186ZM9.3751 3.18928C6.45093 3.18928 3.54056 3.18928 0.62525 3.18928C0.62525 3.23249 0.62525 3.26854 0.62525 3.30486C0.62525 4.19583 0.62525 5.0868 0.62525 5.97803C0.62525 6.25161 0.735144 6.36348 1.00415 6.36348C3.66921 6.36348 6.33401 6.36348 8.99907 6.36348C9.26208 6.36348 9.3751 6.24975 9.37536 5.98519C9.37562 5.08759 9.37536 4.19 9.37536 3.29213C9.3751 3.25926 9.3751 3.22666 9.3751 3.18928ZM9.37041 1.91578C6.45249 1.91578 3.54161 1.91578 0.632802 1.91578C0.632802 2.12918 0.632802 2.33569 0.632802 2.54087C3.5489 2.54087 6.45744 2.54087 9.37041 2.54087C9.37041 2.33171 9.37041 2.12759 9.37041 1.91578ZM0.625771 1.26525C3.54838 1.26525 6.45927 1.26525 9.3751 1.26525C9.3751 1.18201 9.3751 1.10593 9.3751 1.02985C9.3751 0.744081 9.26807 0.636455 8.98422 0.636455C6.32802 0.636455 3.67181 0.636455 1.01561 0.636455C0.986441 0.636455 0.957015 0.635924 0.927849 0.63725C0.759102 0.644672 0.633323 0.769 0.626552 0.940779C0.622385 1.04628 0.625771 1.15206 0.625771 1.26525Z" fill="#FF9900"/>
<path d="M2.81431 5.40812C2.30052 5.40812 1.78673 5.40865 1.27319 5.40785C1.12163 5.40759 1.00236 5.32011 0.960959 5.18491C0.919554 5.04971 0.965386 4.90285 1.0857 4.82942C1.13856 4.79708 1.20679 4.77481 1.26799 4.77455C2.2987 4.77137 3.32941 4.77163 4.36012 4.77269C4.54371 4.77296 4.68121 4.91107 4.68329 5.08762C4.68537 5.26603 4.54345 5.40732 4.35543 5.40785C3.84164 5.40891 3.32811 5.40812 2.81431 5.40812Z" fill="#FF9900"/>
</svg>
