<svg width="10" height="9" viewBox="0 0 10 9" fill="none" xmlns="http://www.w3.org/2000/svg">
<path d="M0.968018 8.7937V0.58374H6.13402C6.13402 0.61774 6.13402 0.654711 6.13402 0.691711C6.13402 1.32371 6.13402 1.95574 6.13402 2.59174C6.13402 2.67774 6.11302 2.70869 6.02302 2.70569C5.81502 2.69969 5.60802 2.70569 5.38702 2.70569V1.32971H1.72301V8.04071H3.86002V3.32971C3.91102 3.32971 3.94901 3.32471 3.98701 3.32471H8.90102C9.03702 3.32471 9.03802 3.32468 9.03802 3.46368V8.6637C9.03802 8.8007 9.03802 8.8017 8.89802 8.8017H5.39802V7.44073C5.63002 7.44073 5.85802 7.44073 6.08702 7.44073C6.10502 7.44073 6.13702 7.49171 6.13802 7.51971C6.14302 7.68971 6.13802 7.85872 6.13802 8.03772H8.28202V4.07172H4.61502V8.7887L0.968018 8.7937Z" fill="#FF9900"/>
</svg>
