<svg width="8" height="8" viewBox="0 0 8 8" fill="none" xmlns="http://www.w3.org/2000/svg">
<path d="M7.11111 3.98892C7.11111 3.12465 6.80919 2.39143 6.20533 1.78925C5.60178 1.18737 4.86667 0.886427 4 0.886427V0C4.55556 0 5.076 0.105189 5.56133 0.315568C6.04637 0.526242 6.46859 0.810785 6.828 1.1692C7.18711 1.52731 7.4723 1.94837 7.68356 2.43235C7.89452 2.91605 8 3.4349 8 3.98892H7.11111ZM5.33333 3.98892C5.33333 3.61958 5.2037 3.30563 4.94444 3.04709C4.68519 2.78855 4.37037 2.65928 4 2.65928V1.77285C4.61481 1.77285 5.13896 1.98885 5.57244 2.42083C6.00563 2.85311 6.22222 3.37581 6.22222 3.98892H5.33333ZM7.53333 8C6.57778 8 5.64637 7.78947 4.73911 7.36842C3.83156 6.94737 3.02785 6.38597 2.328 5.68421C1.62785 4.98246 1.06489 4.17906 0.639111 3.27402C0.213037 2.36927 0 1.44044 0 0.487535V0.254848C0 0.173592 0.00740738 0.0960295 0.0222222 0.0221606H2.62222L3.03333 2.24931L1.76667 3.52355C2.07778 4.0554 2.46859 4.55402 2.93911 5.01939C3.40933 5.48476 3.92593 5.88735 4.48889 6.22715L5.77778 4.94183L8 5.38504V7.97784C7.92593 7.98523 7.84815 7.99084 7.76667 7.99468C7.68519 7.99823 7.60741 8 7.53333 8Z" fill="#FF9900"/>
</svg>
