<svg width="12" height="13" viewBox="0 0 12 13" fill="none" xmlns="http://www.w3.org/2000/svg">
<path fill-rule="evenodd" clip-rule="evenodd" d="M11.5385 11.9703C11.7932 11.9703 12 12.201 12 12.4851C12 12.7693 11.7932 12.9999 11.5385 12.9999H7.0752C6.82043 12.9999 6.61367 12.7693 6.61367 12.4851C6.61367 12.201 6.82043 11.9703 7.0752 11.9703H11.5385ZM8.68673 0.448654C8.71749 0.475424 9.74701 1.36773 9.74701 1.36773C10.1212 1.61621 10.4135 2.0603 10.5242 2.58608C10.6344 3.10636 10.5544 3.64312 10.2978 4.09682C10.296 4.09985 10.2944 4.10284 10.2884 4.11173L10.2838 4.11861C10.2421 4.17983 10.0611 4.43521 9.1472 5.7123C9.13871 5.72904 9.12909 5.74472 9.11859 5.75995C9.10318 5.7824 9.08641 5.80304 9.06851 5.82183C9.00617 5.90937 8.94034 6.00136 8.87112 6.09806L8.73086 6.294C8.44145 6.69827 8.09818 7.17765 7.69093 7.74624L7.48192 8.03803C6.69568 9.13568 5.68874 10.5411 4.39883 12.3411C4.11638 12.7337 3.693 12.9622 3.23824 12.9684L0.998914 13H0.99276C0.779227 13 0.593385 12.8366 0.54354 12.604L0.0395525 10.2215C-0.064445 9.72797 0.0389371 9.21867 0.322622 8.82331L6.1194 0.736252C6.12187 0.733507 6.12371 0.730075 6.12617 0.727329C6.76185 -0.120364 7.91136 -0.245287 8.68673 0.448654ZM5.4731 3.28575L1.04322 9.46646C0.937992 9.61335 0.899224 9.80279 0.937992 9.98468L1.35706 11.9649L3.22717 11.9388C3.40501 11.9368 3.56931 11.8482 3.67823 11.6972C4.23913 10.9145 4.94408 9.93062 5.66886 8.91898L5.92529 8.56106L6.18215 8.20252C6.86188 7.2537 7.53339 6.31622 8.09526 5.53153L5.4731 3.28575ZM6.83693 1.38421L6.0497 2.4813L8.67165 4.72644C9.17632 4.02136 9.50832 3.55697 9.53901 3.5127C9.63993 3.33012 9.67932 3.07204 9.6264 2.82357C9.57224 2.56892 9.43009 2.3527 9.22517 2.21474C9.18148 2.18111 8.14459 1.28331 8.11259 1.25516C7.72244 0.906477 7.15323 0.96688 6.83693 1.38421Z" fill="white"/>
</svg>
