<svg width="12" height="8" viewBox="0 0 12 8" fill="none" xmlns="http://www.w3.org/2000/svg">
<path d="M6.09432 0.0599313C5.93832 0.14409 5.84107 0.30412 5.84107 0.478175V3.18847H0.489529C0.219309 3.18847 0 3.4027 0 3.66665C0 3.9306 0.219309 4.14482 0.489529 4.14482H5.84107V6.85512C5.84107 7.02982 5.93832 7.18985 6.09432 7.27337C6.25031 7.35816 6.4409 7.35243 6.59168 7.25998L11.7716 4.07151C11.9138 3.98352 12 3.83114 12 3.66665C12 3.50216 11.9138 3.34978 11.7716 3.26179L6.59168 0.0733202C6.51205 0.0248651 6.42132 0 6.3306 0C6.24966 0 6.16807 0.0204022 6.09432 0.0599313Z" fill="white"/>
</svg>
