<svg width="14" height="20" viewBox="0 0 14 20" fill="none" xmlns="http://www.w3.org/2000/svg">
<path fill-rule="evenodd" clip-rule="evenodd" d="M11.6666 16.5333C11.6666 17.0485 11.2484 17.4666 10.7332 17.4666H3.26655C2.75135 17.4666 2.33322 17.0485 2.33322 16.5333V4.86663C2.33322 4.60903 2.54229 4.39996 2.79989 4.39996H3.26655C3.26655 5.43036 4.10189 6.26663 5.13322 6.26663H8.86655C9.89789 6.26663 10.7332 5.43036 10.7332 4.39996H11.1999C11.4575 4.39996 11.6666 4.60903 11.6666 4.86663V16.5333ZM6.06655 2.53329H7.93322C8.44842 2.53329 8.86655 2.95143 8.86655 3.46663C8.86655 3.98183 8.44842 4.39996 7.93322 4.39996H6.06655C5.55135 4.39996 5.13322 3.98183 5.13322 3.46663C5.13322 2.95143 5.55135 2.53329 6.06655 2.53329ZM11.6666 2.53329H10.7332C10.7332 1.50196 9.89789 0.666626 8.86655 0.666626H5.13322C4.10189 0.666626 3.26655 1.50196 3.26655 2.53329H2.33322C1.30189 2.53329 0.466553 3.36863 0.466553 4.39996V17.4666C0.466553 18.497 1.30189 19.3333 2.33322 19.3333H11.6666C12.6979 19.3333 13.5332 18.497 13.5332 17.4666V4.39996C13.5332 3.36863 12.6979 2.53329 11.6666 2.53329Z" fill="#F7991A"/>
</svg>
