<svg width="244" height="159" viewBox="0 0 244 159" fill="none" xmlns="http://www.w3.org/2000/svg">
<path d="M239.426 155.616C239.426 157.484 186.472 159 121.162 159C55.8519 159 2.89819 157.484 2.89819 155.616C2.89819 153.748 55.8451 152.228 121.162 152.228C186.479 152.228 239.426 153.743 239.426 155.616Z" fill="#FF9900" fill-opacity="0.81"/>
<path opacity="0.5" d="M239.426 155.616C239.426 157.484 186.472 159 121.162 159C55.8519 159 2.89819 157.484 2.89819 155.616C2.89819 153.748 55.8451 152.228 121.162 152.228C186.479 152.228 239.426 153.743 239.426 155.616Z" fill="white"/>
<path d="M223.277 121.468C221.632 122.804 220.52 124.422 220.055 126.158L213.598 128.698V116.692L213.721 116.816L224.018 111.531C225.316 111.674 230.312 112.074 234.893 110.353C240.14 108.356 244 101.498 244 101.498C244 101.498 231.406 100.502 227.137 104.205C224.797 106.128 223.55 108.589 223.637 111.116L213.598 116.273V107.408C215.477 106.794 217.138 105.895 218.461 104.776C219.783 103.656 220.734 102.345 221.245 100.936C223.073 95.9456 213.32 86.1133 213.32 86.1133C213.32 86.1133 203.158 96.2316 205.164 101.365C206.883 105.711 211.512 107.084 212.891 107.408V126.639L205.666 122.411C205.83 121.401 205.959 118.232 201.935 115.053C197.055 111.206 184.053 111.492 184.053 111.492C184.053 111.492 189.538 119.185 194.248 121.754C198.326 123.994 203.967 123.079 205.32 122.812L212.946 127.268V133.111H201.588L206.21 153.367H220.076L224.697 133.111H213.598V129.246L220.694 126.458C222.421 126.791 227.246 127.487 231.814 125.886C237.503 123.898 242.172 119.609 242.172 119.609C242.172 119.609 228.558 117.193 223.277 121.468Z" fill="#FF9900" fill-opacity="0.81"/>
<path opacity="0.5" d="M223.277 121.468C221.632 122.804 220.52 124.422 220.055 126.158L213.598 128.698V116.692L213.721 116.816L224.018 111.531C225.316 111.674 230.312 112.074 234.893 110.353C240.14 108.356 244 101.498 244 101.498C244 101.498 231.406 100.502 227.137 104.205C224.797 106.128 223.55 108.589 223.637 111.116L213.598 116.273V107.408C215.477 106.794 217.138 105.895 218.461 104.776C219.783 103.656 220.734 102.345 221.245 100.936C223.073 95.9456 213.32 86.1133 213.32 86.1133C213.32 86.1133 203.158 96.2316 205.164 101.365C206.883 105.711 211.512 107.084 212.891 107.408V126.639L205.666 122.411C205.83 121.401 205.959 118.232 201.935 115.053C197.055 111.206 184.053 111.492 184.053 111.492C184.053 111.492 189.538 119.185 194.248 121.754C198.326 123.994 203.967 123.079 205.32 122.812L212.946 127.268V133.111H201.588L206.21 153.367H220.076L224.697 133.111H213.598V129.246L220.694 126.458C222.421 126.791 227.246 127.487 231.814 125.886C237.503 123.898 242.172 119.609 242.172 119.609C242.172 119.609 228.558 117.193 223.277 121.468Z" fill="white"/>
<path d="M195.117 6.6582H39.5864C35.2095 6.6582 31.6614 9.14624 31.6614 12.2154V80.9464C31.6614 84.0155 35.2095 86.5036 39.5864 86.5036H195.117C199.494 86.5036 203.042 84.0155 203.042 80.9464V12.2154C203.042 9.14624 199.494 6.6582 195.117 6.6582Z" fill="#FF9900" fill-opacity="0.81" stroke="#263238" stroke-miterlimit="10" stroke-linecap="round"/>
<path opacity="0.7" d="M195.117 6.6582H39.5864C35.2095 6.6582 31.6614 9.14624 31.6614 12.2154V80.9464C31.6614 84.0155 35.2095 86.5036 39.5864 86.5036H195.117C199.494 86.5036 203.042 84.0155 203.042 80.9464V12.2154C203.042 9.14624 199.494 6.6582 195.117 6.6582Z" fill="#FF9900" fill-opacity="0.81" stroke="#263238" stroke-miterlimit="10" stroke-linecap="round"/>
<path d="M103.945 51.2969H83.8943V59.1847H103.945V51.2969Z" fill="white"/>
<path d="M103.945 60.6099H83.8943V68.4976H103.945V60.6099Z" fill="white"/>
<path d="M126.035 51.2969H105.984V59.1847H126.035V51.2969Z" fill="white"/>
<path d="M148.131 41.9795H128.081V49.8673H148.131V41.9795Z" fill="white"/>
<path d="M148.131 32.6621H128.081V40.5499H148.131V32.6621Z" fill="white"/>
<path d="M148.131 15.4419H128.081V21.9142H148.131V15.4419Z" fill="#263238"/>
<path d="M126.035 15.4419H105.984V21.9142H126.035V15.4419Z" fill="#263238"/>
<path d="M126.035 60.6099H105.984V68.4976H126.035V60.6099Z" fill="white"/>
<path d="M126.035 23.3442H105.984V31.232H126.035V23.3442Z" fill="white"/>
<path d="M126.035 32.6621H105.984V40.5499H126.035V32.6621Z" fill="white"/>
<path d="M126.035 41.9795H105.984V49.8673H126.035V41.9795Z" fill="white"/>
<path d="M148.131 60.6099H128.081V68.4976H148.131V60.6099Z" fill="white"/>
<path d="M59.7587 23.3442H38.3828V31.232H59.7587V23.3442Z" fill="white"/>
<path d="M59.7587 41.9795H38.3828V49.8673H59.7587V41.9795Z" fill="white"/>
<path d="M59.7587 51.2969H38.3828V59.1847H59.7587V51.2969Z" fill="white"/>
<path d="M59.7587 32.6621H38.3828V40.5499H59.7587V32.6621Z" fill="white"/>
<path d="M193.642 15.4419H172.266V21.9142H193.642V15.4419Z" fill="#263238"/>
<path d="M59.7587 60.6099H38.3828V68.4976H59.7587V60.6099Z" fill="white"/>
<path d="M170.22 23.3442H150.17V31.232H170.22V23.3442Z" fill="white"/>
<path d="M148.131 51.2969H128.081V59.1847H148.131V51.2969Z" fill="white"/>
<path d="M170.22 51.2969H150.17V59.1847H170.22V51.2969Z" fill="white"/>
<path d="M170.22 32.6621H150.17V40.5499H170.22V32.6621Z" fill="white"/>
<path d="M170.22 41.9795H150.17V49.8673H170.22V41.9795Z" fill="white"/>
<path d="M170.22 60.6099H150.17V68.4976H170.22V60.6099Z" fill="white"/>
<path d="M148.131 23.3442H128.081V31.232H148.131V23.3442Z" fill="white"/>
<path d="M193.642 60.6099H172.266V68.4976H193.642V60.6099Z" fill="white"/>
<path d="M170.22 15.4419H150.17V21.9142H170.22V15.4419Z" fill="#263238"/>
<path d="M193.642 51.2969H172.266V59.1847H193.642V51.2969Z" fill="white"/>
<path d="M170.22 69.9277H150.17V78.2635H170.22V69.9277Z" fill="white"/>
<path d="M193.642 41.9795H172.266V49.8673H193.642V41.9795Z" fill="white"/>
<path d="M126.035 69.9277H105.984V78.2635H126.035V69.9277Z" fill="white"/>
<path d="M148.131 69.9277H128.081V78.2635H148.131V69.9277Z" fill="white"/>
<path d="M193.642 32.6621H172.266V40.5499H193.642V32.6621Z" fill="white"/>
<path d="M193.642 69.9277H172.266V78.2635H193.642V69.9277Z" fill="white"/>
<path d="M59.7587 69.9277H38.3828V78.2635H59.7587V69.9277Z" fill="white"/>
<path d="M193.642 23.3442H172.266V31.232H193.642V23.3442Z" fill="white"/>
<path d="M59.7587 15.4419H38.3828V21.9142H59.7587V15.4419Z" fill="#263238"/>
<path d="M81.8488 15.4419H61.7983V21.9142H81.8488V15.4419Z" fill="#263238"/>
<path d="M81.8488 51.2969H61.7983V59.1847H81.8488V51.2969Z" fill="white"/>
<path d="M103.945 15.4419H83.8943V21.9142H103.945V15.4419Z" fill="#263238"/>
<path d="M103.945 32.6621H83.8943V40.5499H103.945V32.6621Z" fill="white"/>
<path d="M81.8488 60.6099H61.7983V68.4976H81.8488V60.6099Z" fill="white"/>
<path d="M103.945 23.3442H83.8943V31.232H103.945V23.3442Z" fill="white"/>
<path d="M81.8488 23.3442H61.7983V31.232H81.8488V23.3442Z" fill="white"/>
<path d="M103.945 41.9795H83.8943V49.8673H103.945V41.9795Z" fill="white"/>
<path d="M81.8488 41.9795H61.7983V49.8673H81.8488V41.9795Z" fill="white"/>
<path d="M81.8488 69.9277H61.7983V78.2635H81.8488V69.9277Z" fill="white"/>
<path d="M81.8488 32.6621H61.7983V40.5499H81.8488V32.6621Z" fill="white"/>
<path d="M103.945 69.9277H83.8943V78.2635H103.945V69.9277Z" fill="white"/>
<path d="M47.8178 11.0907C49.4132 11.0907 50.7065 10.1838 50.7065 9.06512C50.7065 7.94643 49.4132 7.03955 47.8178 7.03955C46.2225 7.03955 44.9292 7.94643 44.9292 9.06512C44.9292 10.1838 46.2225 11.0907 47.8178 11.0907Z" fill="white" stroke="#263238" stroke-miterlimit="10" stroke-linecap="round"/>
<path d="M60.4859 9.06536C60.4873 8.6634 60.3184 8.2702 60.0008 7.93558C59.6831 7.60097 59.231 7.34 58.7017 7.18573C58.1723 7.03147 57.5896 6.99087 57.0273 7.06906C56.465 7.14724 55.9485 7.34071 55.5431 7.62494C55.1378 7.90918 54.8619 8.27138 54.7504 8.66567C54.6389 9.05996 54.6968 9.46859 54.9168 9.83978C55.1368 10.211 55.5089 10.528 55.9861 10.7507C56.4633 10.9735 57.024 11.0919 57.5973 11.0909C58.3634 11.0909 59.0981 10.8775 59.6398 10.4977C60.1816 10.1178 60.4859 9.60258 60.4859 9.06536Z" fill="white" stroke="#263238" stroke-miterlimit="10" stroke-linecap="round"/>
<path d="M47.8716 10.3855C47.4697 10.3855 47.0842 10.2735 46.7999 10.0742C46.5157 9.87486 46.356 9.60452 46.356 9.32264V2.13546C46.3551 1.99549 46.3936 1.85677 46.4694 1.72727C46.5452 1.59777 46.6567 1.48005 46.7975 1.38085C46.9383 1.28165 47.1057 1.20294 47.2901 1.14923C47.4744 1.09552 47.672 1.06787 47.8716 1.06787C48.2754 1.06787 48.6627 1.18035 48.9482 1.38056C49.2337 1.58077 49.3941 1.85232 49.3941 2.13546V9.32264C49.3941 9.46262 49.3547 9.60122 49.2781 9.73048C49.2015 9.85974 49.0893 9.97711 48.9478 10.0759C48.8063 10.1746 48.6384 10.2528 48.4538 10.3059C48.2691 10.3591 48.0713 10.3861 47.8716 10.3855Z" fill="white" stroke="#263238" stroke-miterlimit="10" stroke-linecap="round"/>
<path d="M57.7408 10.3855C57.3388 10.3855 56.9533 10.2735 56.669 10.0742C56.3848 9.87486 56.2251 9.60452 56.2251 9.32264V2.13546C56.2242 1.99549 56.2628 1.85677 56.3385 1.72727C56.4143 1.59777 56.5258 1.48005 56.6666 1.38085C56.8075 1.28165 56.9749 1.20294 57.1592 1.14923C57.3435 1.09552 57.5412 1.06787 57.7408 1.06787C58.1446 1.06787 58.5318 1.18035 58.8173 1.38056C59.1029 1.58077 59.2633 1.85232 59.2633 2.13546V9.32264C59.2633 9.46262 59.2238 9.60122 59.1473 9.73048C59.0707 9.85974 58.9584 9.97711 58.8169 10.0759C58.6755 10.1746 58.5076 10.2528 58.3229 10.3059C58.1382 10.3591 57.9404 10.3861 57.7408 10.3855Z" fill="white" stroke="#263238" stroke-miterlimit="10" stroke-linecap="round"/>
<path d="M181.143 9.06536C181.144 8.6634 180.975 8.2702 180.658 7.93558C180.34 7.60097 179.888 7.34 179.358 7.18573C178.829 7.03147 178.246 6.99087 177.684 7.06906C177.122 7.14724 176.605 7.34071 176.2 7.62494C175.795 7.90918 175.519 8.27138 175.407 8.66567C175.296 9.05996 175.354 9.46859 175.574 9.83978C175.793 10.211 176.166 10.528 176.643 10.7507C177.12 10.9735 177.681 11.0919 178.254 11.0909C179.02 11.0909 179.755 10.8775 180.297 10.4977C180.838 10.1178 181.143 9.60258 181.143 9.06536Z" fill="white" stroke="#263238" stroke-miterlimit="10" stroke-linecap="round"/>
<path d="M188.028 11.0907C189.623 11.0907 190.917 10.1838 190.917 9.06512C190.917 7.94643 189.623 7.03955 188.028 7.03955C186.433 7.03955 185.139 7.94643 185.139 9.06512C185.139 10.1838 186.433 11.0907 188.028 11.0907Z" fill="white" stroke="#263238" stroke-miterlimit="10" stroke-linecap="round"/>
<path d="M178.301 10.3855C177.899 10.3855 177.514 10.2735 177.23 10.0742C176.945 9.87486 176.786 9.60452 176.786 9.32264V2.13546C176.785 1.99549 176.823 1.85677 176.899 1.72727C176.975 1.59777 177.086 1.48005 177.227 1.38085C177.368 1.28165 177.535 1.20294 177.72 1.14923C177.904 1.09552 178.102 1.06787 178.301 1.06787C178.705 1.06787 179.092 1.18035 179.378 1.38056C179.663 1.58077 179.824 1.85232 179.824 2.13546V9.32264C179.824 9.46262 179.784 9.60122 179.708 9.73048C179.631 9.85974 179.519 9.97711 179.377 10.0759C179.236 10.1746 179.068 10.2528 178.883 10.3059C178.699 10.3591 178.501 10.3861 178.301 10.3855Z" fill="white" stroke="#263238" stroke-miterlimit="10" stroke-linecap="round"/>
<path d="M188.177 10.3855C187.976 10.388 187.776 10.3624 187.589 10.3101C187.402 10.2578 187.232 10.1799 187.088 10.081C186.944 9.98205 186.83 9.86403 186.752 9.73382C186.675 9.60361 186.634 9.46383 186.635 9.32264V2.13546C186.635 1.85232 186.795 1.58077 187.08 1.38056C187.366 1.18035 187.753 1.06787 188.157 1.06787C188.357 1.06787 188.554 1.09552 188.739 1.14923C188.923 1.20294 189.09 1.28165 189.231 1.38085C189.372 1.48005 189.483 1.59777 189.559 1.72727C189.635 1.85677 189.674 1.99549 189.673 2.13546V9.32264C189.673 9.60206 189.516 9.87025 189.236 10.0692C188.956 10.2681 188.576 10.3817 188.177 10.3855Z" fill="white" stroke="#263238" stroke-miterlimit="10" stroke-linecap="round"/>
<path d="M113.039 11.0907C114.634 11.0907 115.927 10.1838 115.927 9.06512C115.927 7.94643 114.634 7.03955 113.039 7.03955C111.443 7.03955 110.15 7.94643 110.15 9.06512C110.15 10.1838 111.443 11.0907 113.039 11.0907Z" fill="white" stroke="#263238" stroke-miterlimit="10" stroke-linecap="round"/>
<path d="M122.813 11.0907C124.409 11.0907 125.702 10.1838 125.702 9.06512C125.702 7.94643 124.409 7.03955 122.813 7.03955C121.218 7.03955 119.925 7.94643 119.925 9.06512C119.925 10.1838 121.218 11.0907 122.813 11.0907Z" fill="white" stroke="#263238" stroke-miterlimit="10" stroke-linecap="round"/>
<path d="M113.086 10.3855C112.685 10.3855 112.299 10.2735 112.015 10.0742C111.731 9.87486 111.571 9.60452 111.571 9.32264V2.13546C111.57 1.99549 111.608 1.85677 111.684 1.72727C111.76 1.59777 111.872 1.48005 112.012 1.38085C112.153 1.28165 112.321 1.20294 112.505 1.14923C112.689 1.09552 112.887 1.06787 113.086 1.06787C113.49 1.06787 113.878 1.18035 114.163 1.38056C114.449 1.58077 114.609 1.85232 114.609 2.13546V9.32264C114.609 9.46262 114.57 9.60122 114.493 9.73048C114.416 9.85974 114.304 9.97711 114.163 10.0759C114.021 10.1746 113.853 10.2528 113.669 10.3059C113.484 10.3591 113.286 10.3861 113.086 10.3855Z" fill="white" stroke="#263238" stroke-miterlimit="10" stroke-linecap="round"/>
<path d="M122.956 10.3855C122.554 10.3855 122.169 10.2735 121.884 10.0742C121.6 9.87486 121.44 9.60452 121.44 9.32264V2.13546C121.44 1.99549 121.478 1.85677 121.554 1.72727C121.63 1.59777 121.741 1.48005 121.882 1.38085C122.023 1.28165 122.19 1.20294 122.375 1.14923C122.559 1.09552 122.757 1.06787 122.956 1.06787C123.156 1.06787 123.354 1.09548 123.539 1.14914C123.723 1.20279 123.891 1.28143 124.033 1.38056C124.174 1.4797 124.286 1.59739 124.363 1.72691C124.439 1.85644 124.479 1.99526 124.479 2.13546V9.32264C124.479 9.46262 124.439 9.60122 124.363 9.73048C124.286 9.85974 124.174 9.97711 124.032 10.0759C123.891 10.1746 123.723 10.2528 123.538 10.3059C123.354 10.3591 123.156 10.3861 122.956 10.3855Z" fill="white" stroke="#263238" stroke-miterlimit="10" stroke-linecap="round"/>
<path d="M52.2623 33.3481L42.1487 39.6012" stroke="#263238" stroke-width="2" stroke-linecap="round" stroke-linejoin="round"/>
<path d="M45.2612 33.3481L52.2619 39.1818" stroke="#263238" stroke-width="2" stroke-linecap="round" stroke-linejoin="round"/>
<path d="M164.198 24.4546L154.084 30.7029" stroke="#263238" stroke-width="2" stroke-linecap="round" stroke-linejoin="round"/>
<path d="M157.198 24.4546L164.198 30.2882" stroke="#263238" stroke-width="2" stroke-linecap="round" stroke-linejoin="round"/>
<path d="M97.9234 24.4546L87.803 30.7029" stroke="#263238" stroke-width="2" stroke-linecap="round" stroke-linejoin="round"/>
<path d="M90.9155 24.4546L97.923 30.2882" stroke="#263238" stroke-width="2" stroke-linecap="round" stroke-linejoin="round"/>
<path d="M187.334 24.2783L177.214 30.5314" stroke="#263238" stroke-width="2" stroke-linecap="round" stroke-linejoin="round"/>
<path d="M180.327 24.2783L187.335 30.112" stroke="#263238" stroke-width="2" stroke-linecap="round" stroke-linejoin="round"/>
<path d="M149.789 98.2476C149.789 98.2476 147.689 106.512 147.37 111.268C147.05 116.025 148.661 119.418 149.307 124.175C149.953 128.931 154.146 147.157 154.146 148.629C154.263 150.005 153.694 151.367 152.535 152.48C151.244 153.724 147.044 154.863 147.37 155.307C147.696 155.75 149.626 156.441 153.018 155.65C156.41 154.859 156.573 154.063 157.864 154.063C159.155 154.063 161.901 153.495 161.412 152.156C160.923 150.817 158.53 147.972 158.693 142.986C159.013 131.438 158.204 111.53 158.204 111.53L163.369 100.435L149.789 98.2476Z" fill="white" stroke="#263238" stroke-linecap="round" stroke-linejoin="round"/>
<path d="M152.712 152.295L152.536 152.48C151.244 153.724 147.044 154.863 147.37 155.307C147.696 155.75 149.627 156.441 153.018 155.65C156.41 154.859 156.573 154.063 157.864 154.063C159.156 154.063 161.902 153.496 161.412 152.156C161.263 151.727 160.916 151.151 160.522 150.407C158.972 151.236 157.326 151.972 155.601 152.609C154.833 152.809 153.691 152.585 152.712 152.295Z" fill="#263238" stroke="#263238" stroke-linecap="round" stroke-linejoin="round"/>
<path d="M164.11 49.4432C164.11 49.4432 163.349 47.6225 162.826 46.0021C162.302 44.3816 166.224 43.681 170.526 43.3808C174.829 43.0805 180.912 45.3301 182.706 48.9046C184.501 52.4791 182.992 65.7097 183.175 68.5979C183.359 71.4861 183.767 79.4883 179.586 79.9887C175.406 80.4891 171.009 80.6845 167.352 75.6611C163.696 70.6377 167.706 57.4263 168.141 54.7716C168.576 52.1169 164.328 49.8292 164.328 49.8292L164.11 49.4432Z" fill="#263238" stroke="#263238" stroke-linecap="round" stroke-linejoin="round"/>
<path d="M173.3 45.6875C173.3 45.6875 173.014 48.7187 175.896 50.3344C178.778 51.9501 182.516 55.7867 182.516 58.8179" stroke="white" stroke-width="0.5" stroke-linecap="round" stroke-linejoin="round"/>
<path d="M178.778 53.9707C178.778 53.9707 180.817 59.2133 179.064 63.6648" stroke="white" stroke-width="0.5" stroke-linecap="round" stroke-linejoin="round"/>
<path d="M156.599 99.668C156.599 99.668 153.201 110.439 156.334 119.747C157.191 122.292 170.397 145.122 171.437 148.772C172.477 152.423 172.477 155.712 174.563 156.989C176.65 158.266 177.962 157.718 176.901 153.519C176.19 151.175 175.047 148.905 173.503 146.766C173.503 146.766 169.595 129.241 169.072 125.409C168.548 121.577 165.428 117.012 165.428 117.012L170.376 102.041L156.599 99.668Z" fill="white" stroke="#263238" stroke-linecap="round" stroke-linejoin="round"/>
<path d="M176.229 151.542C175.978 152.495 175.434 153.319 174.299 153.162C173.768 153.091 173.278 152.911 172.891 152.646C172.504 152.381 172.237 152.041 172.124 151.67C172.634 154.082 173.048 156.069 174.564 156.994C176.644 158.271 177.962 157.723 176.902 153.524C176.732 152.855 176.507 152.193 176.229 151.542Z" fill="#263238" stroke="#263238" stroke-linecap="round" stroke-linejoin="round"/>
<path d="M171.961 150.588H171.9C171.9 150.674 171.934 150.76 171.954 150.841C171.95 150.757 171.953 150.672 171.961 150.588Z" fill="#263238" stroke="#263238" stroke-linecap="round" stroke-linejoin="round"/>
<path d="M161.31 62.7451C159.681 63.019 158.258 63.7133 157.327 64.6897C155.967 66.2672 143.305 72.9444 142.095 73.6689C140.885 74.3933 141.055 78.0393 144.134 78.0393C147.213 78.0393 157.639 72.4583 157.639 72.4583C157.639 72.4583 160.752 69.7845 161.792 67.3586C162.832 64.9327 163.559 62.9882 161.31 62.7451Z" fill="white" stroke="#263238" stroke-linecap="round" stroke-linejoin="round"/>
<path d="M164.77 56.5589C163.56 56.5589 162.364 58.5511 162.364 58.5511L161.222 58.6703C162.248 57.8172 163.56 56.5589 163.56 56.5589C164.593 55.3436 164.24 53.523 163.56 53.6469C162.88 53.7708 158.367 54.9814 157.674 55.5866C156.981 56.1919 154.901 61.0485 154.214 61.5347C153.528 62.0208 142.096 72.2153 140.886 74.403C139.676 76.5906 142.959 79.2596 145.732 77.9251C148.505 76.5906 150.925 72.4584 151.971 69.5654C153.018 66.6724 157.341 61.1867 157.341 61.1867C157.341 61.1867 158.347 60.6148 159.38 59.9762C160.509 59.7768 161.62 59.5333 162.71 59.247C163.39 59.0039 165.307 57.3024 165.307 57.3024C165.307 57.3024 165.98 56.5589 164.77 56.5589Z" fill="white" stroke="#263238" stroke-linecap="round" stroke-linejoin="round"/>
<path d="M161.86 52.6317L158.353 56.5303C158.166 56.7387 158.093 56.9879 158.15 57.231C158.206 57.4741 158.387 57.6944 158.659 57.8505L160.256 58.7704C160.411 58.8593 160.591 58.9244 160.785 58.9618C160.978 58.9991 161.18 59.0077 161.379 58.987C161.577 58.9664 161.767 58.917 161.936 58.8419C162.106 58.7669 162.251 58.6678 162.363 58.5511L166.081 54.6859C166.287 54.47 166.368 54.2069 166.306 53.9506C166.244 53.6944 166.044 53.4646 165.748 53.3085L163.94 52.3553C163.78 52.2723 163.598 52.2134 163.404 52.1822C163.21 52.1511 163.009 52.1484 162.814 52.1744C162.618 52.2004 162.433 52.2544 162.269 52.3331C162.105 52.4118 161.965 52.5135 161.86 52.6317Z" fill="#263238" stroke="#263238" stroke-linecap="round" stroke-linejoin="round"/>
<path d="M173.871 54.4048C173.871 54.4048 172.858 58.9563 172.573 60.696C172.287 62.4356 172.362 62.8121 174.448 62.9789C176.535 63.1457 179.981 63.8892 181.334 66.1292C182.686 68.3693 174.829 75.1513 172.498 76.6145C170.166 78.0777 169.127 80.0508 169.643 81.595C170.16 83.1392 176.256 88.134 175.991 93.2003C175.726 98.2666 166.992 113.037 166.992 113.037C166.992 113.037 155.35 109.729 146.942 110.835C146.942 110.835 150.911 91.2653 153.27 86.1084C155.628 80.9516 158.027 78.1587 157.837 77.053C157.647 75.9473 154.711 72.7207 155.424 69.9945C156.138 67.2683 158.646 64.8805 159.815 63.3983C160.984 61.9161 163.492 61.9351 164.403 62.0066C165.314 62.0781 166.605 62.2783 167.251 61.5872C167.896 60.8961 168.474 57.3311 168.474 57.3311L173.871 54.4048Z" fill="#FF9900" fill-opacity="0.81" stroke="#263238" stroke-linecap="round" stroke-linejoin="round"/>
<path d="M160.345 74.1646L165.524 76.7906" stroke="#263238" stroke-linecap="round" stroke-linejoin="round"/>
<path d="M165.137 85.5171C165.137 85.5171 159.944 92.466 158.768 97.4322" stroke="#263238" stroke-linecap="round" stroke-linejoin="round"/>
<path d="M159.006 92.6328C159.006 92.6328 157.585 96.9222 156.878 100.735" stroke="#263238" stroke-linecap="round" stroke-linejoin="round"/>
<path d="M179.484 64.7993C179.484 64.7993 177.751 65.4094 175.848 67.4731C173.945 69.5368 172.212 73.0541 172.558 73.9024C172.905 74.7508 176.195 73.2972 176.195 73.2972C176.195 73.2972 179.668 84.2161 182.767 83.3726C189 81.6711 180.694 65.6524 180.694 65.6524C180.694 65.6524 180.694 65.0519 179.484 64.7993Z" fill="white" stroke="#263238" stroke-linecap="round" stroke-linejoin="round"/>
<path d="M166.102 66.2913C162.581 65.6812 163.519 63.3268 164.396 62.0018H164.43C165.348 62.0781 166.632 62.2735 167.278 61.5824C167.923 60.8913 168.501 57.3263 168.501 57.3263L173.871 54.4238C173.871 54.4238 172.858 58.9754 172.572 60.715C172.287 62.4546 172.362 62.8311 174.448 62.9979C174.448 62.9789 171.118 67.1825 166.102 66.2913Z" fill="white" stroke="#263238" stroke-linecap="round" stroke-linejoin="round"/>
<path d="M169.12 45.4922C168.789 46.786 168.985 48.1189 169.684 49.3384C170.846 51.1018 175.801 53.1512 175.801 53.1512C175.801 53.1512 177.752 51.7214 178.037 53.2418C178.323 54.7621 177.405 56.2491 175.957 56.2253C174.51 56.2015 174.299 55.0719 174.299 55.0719C173.015 56.3812 171.129 57.3418 168.957 57.7933C165.11 58.6846 163.152 58.5273 162.697 56.4541C162.241 54.3808 162.772 52.0074 164.117 49.4289C165.463 46.8505 168.583 45.5398 169.12 45.4922Z" fill="white" stroke="#263238" stroke-linecap="round" stroke-linejoin="round"/>
<path d="M183.461 63.2313L183.638 61.2916C184.493 60.7595 185.301 60.1913 186.058 59.5901C187.098 58.7417 187.791 57.5264 188.654 58.0125C189.517 58.4987 187.444 59.9571 187.444 59.9571L187.268 60.9103L190.734 60.1858C190.734 60.1858 194.024 57.8791 194.193 58.4844C194.363 59.0897 192.46 61.1533 191.081 62.2495C189.701 63.3457 185.541 63.6793 185.541 63.6793C185.541 63.6793 185.364 73.3878 185.364 76.3046C185.364 79.2214 184.848 82.5004 183.638 83.1009C182.428 83.7015 178.615 83.2201 179.485 78.4874C180.355 73.7547 183.461 63.2313 183.461 63.2313Z" fill="white" stroke="#263238" stroke-linecap="round" stroke-linejoin="round"/>
<path d="M176.195 73.3068L175.155 71" stroke="#263238" stroke-linecap="round" stroke-linejoin="round"/>
<path d="M81.5568 44.5576C81.5568 44.5576 84.6765 47.3315 84.996 47.9415C85.2213 48.3858 85.4075 48.8395 85.5533 49.2998L87.5923 50.3579C87.6565 50.3902 87.7105 50.4315 87.751 50.4791C87.7915 50.5266 87.8176 50.5795 87.8278 50.6345C87.838 50.6894 87.832 50.7452 87.8102 50.7985C87.7884 50.8518 87.7513 50.9013 87.7011 50.9441L86.1582 52.2738C86.1582 52.2738 87.5923 55.6101 87.5176 56.0867C87.4428 56.5633 82.4608 57.75 82.4608 57.75L81.9986 60.3046L72.5511 60.2188L72.5171 55.4861L68.7449 49.2903C68.7449 49.2903 72.1229 44.8197 81.5568 44.5576Z" fill="white" stroke="#263238" stroke-linecap="round" stroke-linejoin="round"/>
<path d="M79.925 53.8946L81.196 53.7993C81.3258 54.1959 81.57 54.5697 81.9137 54.8976C82.2573 55.2255 82.6932 55.5005 83.1943 55.7057" fill="white"/>
<path d="M79.925 53.8946L81.196 53.7993C81.3258 54.1959 81.57 54.5697 81.9137 54.8976C82.2573 55.2255 82.6932 55.5005 83.1943 55.7057" stroke="#263238" stroke-linecap="round" stroke-linejoin="round"/>
<path d="M70.7504 44.7154C70.7504 44.7154 67.1821 44.8345 67.2025 48.2994C67.2229 51.7644 72.2253 54.9719 72.4972 55.4819C72.769 55.9918 75.447 55.7535 77.3297 55.2626C78.3827 55.022 79.2899 54.5403 79.9057 53.8948C79.9057 53.8948 78.1045 52.0551 78.4715 51.5118C78.8386 50.9684 80.7688 51.4879 80.7688 51.4879C81.1962 51.3178 81.5818 51.1005 81.9107 50.8445C82.2369 50.5252 83.9837 49.1478 82.7739 48.4234C81.5641 47.6989 79.6814 47.2604 80.5174 46.3454C81.3534 45.4303 84.344 44.539 83.4672 42.5707C82.5904 40.6023 80.6329 40.6643 79.0017 41.3077C77.3705 41.9511 76.9219 39.8779 73.7478 41.0551C70.5737 42.2323 69.6833 43.9528 70.7504 44.7154Z" fill="#263238" stroke="#263238" stroke-linecap="round" stroke-linejoin="round"/>
<path d="M74.9232 51.502C74.8557 51.869 74.8557 52.2406 74.9232 52.6077" stroke="white" stroke-width="0.5" stroke-linecap="round" stroke-linejoin="round"/>
<path d="M80.4284 45.9351C80.4284 45.9351 79.7488 46.8168 77.0301 48.5278C76.0771 49.1271 75.4004 49.912 75.0862 50.7821" stroke="white" stroke-width="0.5" stroke-linecap="round" stroke-linejoin="round"/>
<path d="M81.0675 47.6846C81.0675 47.6846 78.3012 50.3154 76.8467 51.0971" stroke="white" stroke-width="0.5" stroke-linecap="round" stroke-linejoin="round"/>
<path d="M108.941 44.8484C111.752 45.7961 114.72 46.4942 117.777 46.9264C117.777 46.9264 113.42 44.858 109.206 44.3432C108.819 44.3051 108.608 44.7293 108.941 44.8484Z" fill="#263238" stroke="#263238" stroke-linecap="round" stroke-linejoin="round"/>
<path d="M108.133 60.5101L113.325 51.1877C113.325 51.1877 111.286 48.8381 111.286 48.1279C111.286 47.4178 114.535 44.8632 114.535 44.8632C114.535 44.8632 114.8 43.4763 116.214 44.1387C116.622 44.3356 116.951 44.6033 117.167 44.9157C117.384 45.2281 117.482 45.5745 117.451 45.9212C118.103 46.5658 118.696 47.2392 119.225 47.9373C119.551 48.4901 116.465 51.5642 116.465 51.5642C116.465 51.5642 115.949 60.0335 114.59 62.9455C113.23 65.8576 112.89 66.4628 111.986 67.316C111.082 68.1691 106.787 66.6678 106.787 66.6678L108.133 60.5101Z" fill="white" stroke="#263238" stroke-linecap="round" stroke-linejoin="round"/>
<path d="M84.3913 150.454L92.8397 152.608C93.0377 152.656 93.2194 152.732 93.3731 152.831C93.5268 152.931 93.6491 153.052 93.7323 153.186C93.8155 153.321 93.8577 153.466 93.8561 153.613C93.8546 153.76 93.8093 153.904 93.7233 154.038C93.607 154.201 93.4046 154.326 93.1592 154.386C92.0853 154.658 80.925 157.341 77.6693 156.374C77.3371 156.256 77.057 156.077 76.8594 155.856C76.6617 155.636 76.554 155.381 76.5479 155.12C76.6556 153.362 76.9304 151.61 77.3703 149.877C77.3703 149.877 81.5163 151.255 84.3913 150.454Z" fill="#263238" stroke="#263238" stroke-linecap="round" stroke-linejoin="round"/>
<path d="M93.7371 154.043C93.8263 153.919 93.8756 153.782 93.8814 153.643C93.8873 153.504 93.8496 153.366 93.7711 153.238C91.433 154.034 86.4645 155.525 81.9379 155.583C80.1399 155.66 78.3355 155.553 76.582 155.263C76.6252 155.497 76.7477 155.721 76.9393 155.915C77.1308 156.109 77.3859 156.268 77.6831 156.379C80.9592 157.332 92.0991 154.663 93.173 154.391C93.4184 154.331 93.6208 154.206 93.7371 154.043Z" fill="white" stroke="#263238" stroke-linecap="round" stroke-linejoin="round"/>
<path d="M60.9689 148.653C60.9689 148.653 60.2077 153.567 60.6155 154.053C61.0233 154.539 62.2399 154.868 64.3333 154.773C64.9751 154.763 65.5961 154.611 66.1084 154.34C66.6207 154.069 66.9984 153.692 67.188 153.262C67.3783 152.909 66.8889 149.697 66.8753 149.134C66.8617 148.572 60.9689 148.653 60.9689 148.653Z" fill="#263238" stroke="#263238" stroke-linecap="round" stroke-linejoin="round"/>
<path d="M67.2083 152.342C66.5626 153.214 65.7402 153.772 63.606 153.8C62.5085 153.831 61.4232 153.629 60.4931 153.219C60.4617 153.5 60.5031 153.782 60.6154 154.053C61.0301 154.529 62.2399 154.868 64.3333 154.772C64.975 154.763 65.596 154.611 66.1084 154.34C66.6207 154.069 66.9984 153.692 67.1879 153.262C67.2472 152.957 67.2541 152.648 67.2083 152.342Z" fill="white" stroke="#263238" stroke-linecap="round" stroke-linejoin="round"/>
<path d="M88.9111 92.1137C86.9273 92.8018 84.8355 93.3249 82.6784 93.6722L63.9397 90.6362C63.9397 90.6362 62.6959 98.0045 62.7299 99.2723C62.7639 100.54 63.4096 123.355 63.4096 123.355L60.854 148.996C61.1191 149.379 61.5373 149.699 62.0575 149.917C62.5778 150.135 63.1775 150.243 63.7834 150.226C65.0271 150.222 66.2551 150.032 67.3857 149.668L75.4195 122.979L77.207 151.313C77.207 151.313 78.3149 152.061 80.8433 152.023C81.5835 152.006 82.304 151.852 82.9318 151.576C83.5597 151.301 84.0725 150.914 84.4184 150.455C84.4184 150.455 85.6622 139.493 87.5177 131.648C89.3733 123.803 89.5976 102.208 89.5976 102.208L88.9111 92.1137Z" fill="white" stroke="#263238" stroke-linecap="round" stroke-linejoin="round"/>
<path d="M71.0894 95.9785C73.5471 96.3522 76.0513 96.5549 78.5658 96.5838" stroke="#263238" stroke-linecap="round" stroke-linejoin="round"/>
<path d="M64.1436 94.5635C64.1436 94.5635 65.0135 95.3737 67.3176 95.3737" stroke="#263238" stroke-linecap="round" stroke-linejoin="round"/>
<path d="M83.1541 143.639C83.1541 143.639 84.8804 129.098 86.0359 118.598C86.7331 112.414 86.8284 106.204 86.3214 100.011C86.3214 100.011 89.2032 97.7898 87.1845 93.9531" stroke="#263238" stroke-linecap="round" stroke-linejoin="round"/>
<path d="M83.1537 145.254L82.2905 149.901" stroke="#263238" stroke-linecap="round" stroke-linejoin="round"/>
<path d="M75.399 122.983L73.3464 103.948L68.5547 100.716" stroke="#263238" stroke-linecap="round" stroke-linejoin="round"/>
<path d="M65.3601 81.666C65.4593 81.4493 65.4552 81.2159 65.3486 81.0009C65.2419 80.786 65.0384 80.6012 64.7688 80.4745C62.6889 79.4879 57.6457 77.4576 56.0349 80.1314C55.5641 81.1747 55.2364 82.2471 55.0562 83.3341C54.6076 85.4741 54.7707 99.9628 54.7911 101.445C54.7914 101.525 54.7777 101.605 54.7503 101.683C54.5736 102.251 53.8328 104.729 54.3493 106.206C54.927 107.889 56.0349 109.185 57.9176 109.543C59.8003 109.9 60.8266 108.375 60.5344 107.441C60.2421 106.507 60.9422 105.782 60.6499 104.848C60.412 104.095 59.3925 102.127 59.0051 101.397C58.9116 101.218 58.8881 101.023 58.9371 100.835C59.4673 98.9286 62.4375 88.2384 62.6618 87.7236C62.8861 87.2089 64.626 83.3294 65.3601 81.666Z" fill="white" stroke="#263238" stroke-linecap="round" stroke-linejoin="round"/>
<path d="M57.3535 106.526C57.3535 106.526 59.7528 107.703 60.0314 108.79" stroke="#263238" stroke-linecap="round" stroke-linejoin="round"/>
<path d="M58.1145 105.549C58.1145 105.549 60.0176 106.421 60.5274 107.107" stroke="#263238" stroke-linecap="round" stroke-linejoin="round"/>
<path d="M58.4614 104.562L59.1411 105.22C59.1411 105.22 59.4809 107.841 60.5412 107.451C61.6015 107.06 60.9762 103.881 60.9762 103.881C60.9762 103.881 60.4393 103.104 58.7809 101.25" fill="white"/>
<path d="M58.4614 104.562L59.1411 105.22C59.1411 105.22 59.4809 107.841 60.5412 107.451C61.6015 107.06 60.9762 103.881 60.9762 103.881C60.9762 103.881 60.4393 103.104 58.7809 101.25" stroke="#263238" stroke-linecap="round" stroke-linejoin="round"/>
<path d="M58.3388 101.822C58.7053 102.761 58.6722 103.755 58.2436 104.681C57.6316 105.488 56.9507 106.268 56.2046 107.017C57.2011 107.685 58.1343 108.398 58.9981 109.152" stroke="#263238" stroke-linecap="round" stroke-linejoin="round"/>
<path d="M59.535 64.4705L53.3704 80.3557C53.3704 80.3557 58.5291 83.2868 64.9249 83.2153L69.0505 68.1356C69.0505 68.1356 64.4423 60.8769 59.535 64.4705Z" fill="#263238" stroke="#263238" stroke-linecap="round" stroke-linejoin="round"/>
<path d="M69.7304 59.261C69.7304 59.261 60.6771 62.4162 59.8275 63.846C59.1479 65.0375 61.2277 73.4734 61.2685 74.9556C61.3092 76.4378 63.1172 89.1727 63.6066 91.6367C64.0959 94.1008 75.8407 95.1493 80.313 94.2008C84.7853 93.2524 88.9381 92.8902 88.9109 92.099C88.8837 91.3079 88.2856 84.6068 88.5303 83.3248C88.775 82.0427 90.6713 72.4248 90.6713 72.4248L107.738 69.9465C107.738 69.9465 108.526 69.6129 108.547 67.4491C108.549 65.4067 108.4 63.3657 108.098 61.3343C105.888 61.7062 103.602 61.8062 101.342 61.6298C97.2234 61.3724 92.3433 60.5955 91.4733 60.7671C90.6033 60.9387 84.6765 60.0713 82.7259 59.8997C80.014 59.6423 73.1288 58.0314 69.7304 59.261Z" fill="#263238" stroke="#263238" stroke-linecap="round" stroke-linejoin="round"/>
<path d="M62.1321 82.4477L59.76 68.4976" stroke="white" stroke-width="0.5" stroke-linecap="round" stroke-linejoin="round"/>
<path d="M60.4052 74.5698L59.2498 72.7539" stroke="white" stroke-width="0.5" stroke-linecap="round" stroke-linejoin="round"/>
<path d="M90.6709 72.4009L84.0168 73.1539" stroke="white" stroke-width="0.5" stroke-linecap="round" stroke-linejoin="round"/>
<path d="M89.2035 72.7539L84.3098 75.9853" stroke="white" stroke-width="0.5" stroke-linecap="round" stroke-linejoin="round"/>
<path d="M104.176 62.0493C104.176 62.0493 99.5679 66.8964 88.3396 68.7218" stroke="white" stroke-width="0.5" stroke-linecap="round" stroke-linejoin="round"/>
</svg>
