<svg width="10" height="10" viewBox="0 0 10 10" fill="none" xmlns="http://www.w3.org/2000/svg">
<path d="M4.99987 8.49999C5.47287 8.49999 5.90487 8.44849 6.29887 8.35949L5.42037 7.48099C5.28387 7.49149 5.14537 7.49999 4.99987 7.49999C2.32437 7.49999 1.28787 5.57698 1.03687 4.99998C1.22534 4.57939 1.47989 4.19166 1.79087 3.85148L1.09187 3.15248C0.322867 3.98598 0.0313674 4.82548 0.0258674 4.84198C-0.00862246 4.94467 -0.00862246 5.0558 0.0258674 5.15848C0.0363674 5.19148 1.18337 8.49999 4.99987 8.49999ZM4.99987 1.49998C4.08137 1.49998 3.32687 1.69798 2.69787 1.99048L0.853367 0.146484L0.146367 0.853484L9.14637 9.85349L9.85337 9.14649L8.19387 7.48699C9.50087 6.51149 9.96737 5.17948 9.97437 5.15848C10.0089 5.0558 10.0089 4.94467 9.97437 4.84198C9.96337 4.80849 8.81637 1.49998 4.99987 1.49998ZM7.48587 6.77899L6.34587 5.63898C6.44087 5.44398 6.49987 5.22949 6.49987 4.99998C6.49987 4.17948 5.82037 3.49998 4.99987 3.49998C4.77037 3.49998 4.55587 3.55898 4.36137 3.65448L3.45737 2.75048C3.95363 2.58019 4.47522 2.49548 4.99987 2.49998C7.67537 2.49998 8.71187 4.42298 8.96287 4.99998C8.81187 5.34598 8.37987 6.17098 7.48587 6.77899Z" fill="#555555"/>
</svg>
