<svg width="12" height="8" viewBox="0 0 12 8" fill="none" xmlns="http://www.w3.org/2000/svg">
<path d="M6 7.75C3.4124 7.75 1.20019 6.19847 0.270466 4C1.20019 1.80153 3.4124 0.25 6 0.25C8.5876 0.25 10.7998 1.80153 11.7295 4C10.7998 6.19847 8.5876 7.75 6 7.75ZM3.02273 4C3.02273 5.61534 4.3618 6.91667 6 6.91667C7.6382 6.91667 8.97727 5.61534 8.97727 4C8.97727 2.38466 7.6382 1.08333 6 1.08333C4.3618 1.08333 3.02273 2.38466 3.02273 4ZM4.61364 4C4.61364 3.258 5.22729 2.65 6 2.65C6.77271 2.65 7.38636 3.258 7.38636 4C7.38636 4.742 6.77271 5.35 6 5.35C5.22729 5.35 4.61364 4.742 4.61364 4Z" stroke="#555555" stroke-width="0.5"/>
</svg>
