<svg width="17" height="17" viewBox="0 0 17 17" fill="none" xmlns="http://www.w3.org/2000/svg">
<path fill-rule="evenodd" clip-rule="evenodd" d="M13.3996 9.61704C12.2373 11.1074 11.0221 12.3003 9.61536 13.3962C10.7809 14.0693 13.5153 15.2891 14.4013 14.4034C15.006 13.7988 14.7281 11.9075 13.3996 9.61704ZM8.16793 12.4551C9.78659 11.2712 11.2683 9.78979 12.4518 8.17153C11.2732 6.55897 9.7923 5.07597 8.16793 3.88794C6.53785 5.07923 5.05937 6.56385 3.88327 8.17153C5.0667 9.7906 6.54926 11.2712 8.16793 12.4551ZM6.71961 13.3962C5.30959 12.297 4.09437 11.1041 2.93538 9.61704C1.60687 11.9075 1.32894 13.7988 1.9337 14.4034C2.8115 15.2801 5.52231 14.0888 6.71961 13.3962ZM2.93538 6.72608C4.09681 5.23574 5.31203 4.04364 6.71961 2.94687C5.55573 2.27382 2.82046 1.0532 1.9337 1.93974C1.32894 2.54434 1.60687 4.43558 2.93538 6.72608ZM9.61536 2.94708C11.0254 4.04548 12.2398 5.23839 13.3996 6.72628C16.3484 1.6409 14.1184 0.344498 9.61536 2.94708ZM14.4258 8.17171C18.8636 15.1059 15.0493 18.8363 8.16789 14.4337C1.30282 18.8257 -2.54334 15.1288 1.91003 8.17171C-2.4977 1.28554 1.21887 -2.53603 8.16789 1.9097C15.0468 -2.49122 18.8677 1.23176 14.4258 8.17171ZM9.03667 7.30557C9.51346 7.78306 9.51346 8.55716 9.03667 9.03383C8.55905 9.51133 7.78477 9.51133 7.30715 9.03383C6.82954 8.55716 6.82954 7.78306 7.30715 7.30557C7.78477 6.82808 8.55905 6.82808 9.03667 7.30557Z" fill="#F7991A"/>
</svg>
