<svg width="16" height="18" viewBox="0 0 16 18" fill="none" xmlns="http://www.w3.org/2000/svg">
<path fill-rule="evenodd" clip-rule="evenodd" d="M11.4751 12.5999H3.8251V7.19995C3.8251 4.80055 5.7376 3.59995 7.64914 3.59995H7.65105C9.5626 3.59995 11.4751 4.80055 11.4751 7.19995V12.5999ZM8.60626 15.3002C8.60626 15.797 8.17786 16.2002 7.65001 16.2002C7.12216 16.2002 6.69376 15.797 6.69376 15.3002V14.4002H8.60626V15.3002ZM14.3437 12.6H13.3875V7.2C13.3875 4.0023 11.1231 2.2275 8.60625 1.8711V0H6.69375V1.8711C4.1769 2.2275 1.9125 4.0023 1.9125 7.2V12.6H0.95625C0.4284 12.6 0 13.0032 0 13.5C0 13.9968 0.4284 14.4 0.95625 14.4H4.78125V15.3C4.78125 16.7913 6.06549 18 7.65 18C9.23451 18 10.5187 16.7913 10.5187 15.3V14.4H14.3437C14.8716 14.4 15.3 13.9968 15.3 13.5C15.3 13.0032 14.8716 12.6 14.3437 12.6Z" fill="#F7991A"/>
</svg>
