<svg width="244" height="158" viewBox="0 0 244 158" fill="none" xmlns="http://www.w3.org/2000/svg">
<path d="M244 138.848H0V138.954H244V138.848Z" fill="#EBEBEB"/>
<path d="M219.551 145.672H193.653V145.778H219.551V145.672Z" fill="#EBEBEB"/>
<path d="M161.635 144.344H133.009V144.45H161.635V144.344Z" fill="#EBEBEB"/>
<path d="M194.902 143.734H185.537V143.84H194.902V143.734Z" fill="#EBEBEB"/>
<path d="M70.106 142.449H49.0293V142.555H70.106V142.449Z" fill="#EBEBEB"/>
<path d="M46.3111 142.449H38.7764V142.555H46.3111V142.449Z" fill="#EBEBEB"/>
<path d="M90.6068 144.238H64.1572V144.344H90.6068V144.238Z" fill="#EBEBEB"/>
<path d="M115.656 119.933H21.4281C20.6899 119.932 19.9824 119.677 19.4609 119.223C18.9394 118.769 18.6465 118.153 18.6465 117.512V2.40037C18.6529 1.76254 18.9487 1.15268 19.4695 0.703238C19.9903 0.253802 20.6941 0.00109263 21.4281 0H115.656C116.395 0 117.104 0.255129 117.626 0.709261C118.149 1.16339 118.442 1.77933 118.442 2.42157V117.512C118.442 118.154 118.149 118.77 117.626 119.224C117.104 119.678 116.395 119.933 115.656 119.933ZM21.4281 0.0848189C20.7223 0.0859423 20.0458 0.330396 19.5472 0.764523C19.0485 1.19865 18.7685 1.78698 18.7685 2.40037V117.512C18.7685 118.125 19.0485 118.714 19.5472 119.148C20.0458 119.582 20.7223 119.826 21.4281 119.827H115.656C116.362 119.826 117.039 119.582 117.539 119.148C118.038 118.714 118.319 118.126 118.32 117.512V2.40037C118.319 1.78659 118.038 1.19827 117.539 0.764265C117.039 0.330258 116.362 0.0859399 115.656 0.0848189H21.4281Z" fill="#EBEBEB"/>
<path d="M221.216 119.933H126.983C126.244 119.932 125.536 119.677 125.014 119.223C124.492 118.769 124.198 118.154 124.196 117.512V2.40037C124.204 1.76215 124.501 1.15229 125.022 0.702973C125.544 0.253654 126.248 0.00108071 126.983 0H221.216C221.949 0.00220719 222.651 0.25541 223.171 0.704727C223.691 1.15404 223.986 1.76327 223.992 2.40037V117.512C223.992 118.153 223.7 118.767 223.18 119.221C222.659 119.675 221.953 119.931 221.216 119.933ZM126.983 0.0848189C126.276 0.0859399 125.6 0.330258 125.1 0.764265C124.601 1.19827 124.32 1.78659 124.318 2.40037V117.512C124.32 118.126 124.601 118.714 125.1 119.148C125.6 119.582 126.276 119.826 126.983 119.827H221.216C221.922 119.826 222.599 119.582 223.098 119.148C223.598 118.714 223.879 118.126 223.88 117.512V2.40037C223.879 1.78659 223.598 1.19827 223.098 0.764265C222.599 0.330258 221.922 0.0859399 221.216 0.0848189H126.983Z" fill="#EBEBEB"/>
<path d="M57.3203 108.05H27.6841C26.3042 108.05 25.1855 109.022 25.1855 110.222V111.159C25.1855 112.358 26.3042 113.33 27.6841 113.33H57.3203C58.7003 113.33 59.8189 112.358 59.8189 111.159V110.222C59.8189 109.022 58.7003 108.05 57.3203 108.05Z" fill="#EBEBEB"/>
<path d="M34.7948 113.33H29.9197L24.376 138.848H29.2511L34.7948 113.33Z" fill="#FF9900"/>
<path d="M44.5249 113.33H39.6498L36.9219 138.848H41.797L44.5249 113.33Z" fill="#FF9900"/>
<path d="M50.2109 113.33H55.0861L60.6346 138.848H55.7595L50.2109 113.33Z" fill="#FF9900"/>
<path d="M210.235 6.63696H96.2139V92.9611H210.235V6.63696Z" fill="#FF9900"/>
<path d="M213.656 6.63696H97.8096V92.9611H213.656V6.63696Z" fill="#FF9900"/>
<path d="M210.235 92.9653H96.2139V94.6363H210.235V92.9653Z" fill="#FF9900"/>
<path d="M215.481 92.9653H99.6348V94.6363H215.481V92.9653Z" fill="#FF9900"/>
<path d="M208.864 90.2808V9.32153L102.597 9.32153V90.2808H208.864Z" fill="#FAFAFA"/>
<path d="M136.571 90.2808L156.604 9.32153H169.872L149.84 90.2808H136.571Z" fill="white"/>
<path d="M121.083 90.2808L141.115 9.32153H154.384L134.352 90.2808H121.083Z" fill="white"/>
<path d="M105.101 9.54206V85.1917C105.101 85.3147 105.276 85.4122 105.491 85.4122H106.008C106.223 85.4122 106.399 85.3147 106.399 85.1917V9.54206C106.399 9.41907 106.223 9.32153 106.008 9.32153H105.491C105.276 9.33002 105.101 9.41907 105.101 9.54206Z" fill="#FF9900"/>
<path d="M170.692 90.2808L190.725 9.32153H195.898L175.865 90.2808H170.692Z" fill="white"/>
<path d="M208.864 90.2809V9.32153H208.254V90.2809H208.864Z" fill="#FF9900"/>
<path opacity="0.5" d="M214.789 12.6803H100.767L100.323 10.3647H214.349L214.789 12.6803Z" fill="#FF9900"/>
<path opacity="0.5" d="M214.789 20.6279H100.767L100.323 18.3081H214.349L214.789 20.6279Z" fill="#FF9900"/>
<path opacity="0.5" d="M214.789 28.5714H100.767L100.323 26.2559H214.349L214.789 28.5714Z" fill="#FF9900"/>
<path opacity="0.5" d="M214.789 36.5187H100.767L100.323 34.2031H214.349L214.789 36.5187Z" fill="#FF9900"/>
<path opacity="0.5" d="M214.789 44.462H100.767L100.323 42.1465H214.349L214.789 44.462Z" fill="#FF9900"/>
<path opacity="0.5" d="M214.789 52.4093H100.767L100.323 50.0938H214.349L214.789 52.4093Z" fill="#FF9900"/>
<path opacity="0.5" d="M214.789 16.6539H100.767L100.323 14.3384H214.349L214.789 16.6539Z" fill="#FF9900"/>
<path opacity="0.5" d="M214.789 24.5973H100.767L100.323 22.2817H214.349L214.789 24.5973Z" fill="#FF9900"/>
<path opacity="0.5" d="M214.789 32.545H100.767L100.323 30.2295H214.349L214.789 32.545Z" fill="#FF9900"/>
<path opacity="0.5" d="M214.789 40.4884H100.767L100.323 38.1729H214.349L214.789 40.4884Z" fill="#FF9900"/>
<path opacity="0.5" d="M214.789 48.4357H100.767L100.323 46.1201H214.349L214.789 48.4357Z" fill="#FF9900"/>
<path opacity="0.5" d="M214.789 56.3832H100.767L100.323 54.0676H214.349L214.789 56.3832Z" fill="#FF9900"/>
<path d="M210.235 99.5093H195.137V138.848H210.235V99.5093Z" fill="#FF9900"/>
<path d="M201.036 138.848H210.235V134.331H191.394L201.036 138.848Z" fill="#EBEBEB"/>
<path d="M164.979 99.5093H149.88V138.848H164.979V99.5093Z" fill="#FF9900"/>
<path d="M210.235 99.5093H156.955V137.911H210.235V99.5093Z" fill="#EBEBEB"/>
<path d="M166.154 138.848H156.955V134.331H175.797L166.154 138.848Z" fill="#EBEBEB"/>
<path d="M203.101 103.937H164.09V123.721H203.101V103.937Z" fill="#FAFAFA"/>
<path d="M203.101 125.735H164.09V135.15H203.101V125.735Z" fill="#FAFAFA"/>
<path d="M187.231 104.946H179.96C179.404 104.945 178.872 104.752 178.479 104.41C178.087 104.068 177.866 103.605 177.866 103.122H189.344C189.344 103.363 189.289 103.601 189.183 103.823C189.076 104.045 188.921 104.247 188.724 104.416C188.528 104.586 188.295 104.72 188.038 104.811C187.782 104.902 187.508 104.948 187.231 104.946Z" fill="#EBEBEB"/>
<path d="M187.231 126.74H179.96C179.404 126.74 178.872 126.549 178.479 126.207C178.087 125.866 177.866 125.403 177.866 124.921H189.344C189.344 125.161 189.289 125.399 189.183 125.621C189.076 125.843 188.92 126.044 188.724 126.213C188.527 126.383 188.294 126.516 188.038 126.607C187.782 126.697 187.507 126.743 187.231 126.74Z" fill="#EBEBEB"/>
<path d="M152.871 99.5093H137.772V138.848H152.871V99.5093Z" fill="#FF9900"/>
<path d="M143.677 138.848H152.871V134.331H134.034L143.677 138.848Z" fill="#EBEBEB"/>
<path d="M107.619 99.5093H92.5205V138.848H107.619V99.5093Z" fill="#FF9900"/>
<path d="M152.876 99.5093H99.5957V137.911H152.876V99.5093Z" fill="#EBEBEB"/>
<path d="M108.79 138.848H99.5957V134.331H118.433L108.79 138.848Z" fill="#EBEBEB"/>
<path d="M145.741 103.937H106.73V123.721H145.741V103.937Z" fill="#FAFAFA"/>
<path d="M145.741 125.735H106.73V135.15H145.741V125.735Z" fill="#FAFAFA"/>
<path d="M129.867 104.946H122.6C122.044 104.945 121.511 104.752 121.118 104.411C120.725 104.069 120.503 103.606 120.502 103.122H131.965C131.965 103.606 131.744 104.07 131.35 104.412C130.957 104.754 130.423 104.946 129.867 104.946Z" fill="#EBEBEB"/>
<path d="M129.867 126.74H122.6C122.045 126.74 121.512 126.549 121.118 126.208C120.725 125.867 120.503 125.404 120.502 124.921H131.965C131.965 125.16 131.911 125.397 131.805 125.618C131.7 125.839 131.545 126.04 131.35 126.209C131.155 126.378 130.924 126.512 130.669 126.603C130.415 126.694 130.142 126.741 129.867 126.74Z" fill="#EBEBEB"/>
<path d="M99.7522 99.5093L210.235 99.5093V97.8596L99.7522 97.8596V99.5093Z" fill="#FF9900"/>
<path d="M99.7527 97.8552H92.5205V99.505H99.7527V97.8552Z" fill="#FF9900"/>
<path d="M41.1821 101.731C40.4941 86.3196 39.7621 70.9971 41.2651 63.2659L43.7051 61.7646C43.7051 61.7646 43.1683 63.2023 42.8853 86.8158C42.6022 110.429 42.2557 98.2239 42.5534 101.731H41.1821Z" fill="#FF9900"/>
<path d="M45.1256 47.0743C48.8979 38.5331 57.6867 30.2845 67.232 26.9087C70.9799 25.5855 65.5826 54.7165 51.9918 56.5952C45.355 57.5113 43.2859 72.2866 42.1683 79.369C41.7877 65.4163 41.3534 55.6156 45.1256 47.0743Z" fill="#FF9900"/>
<path d="M44.3197 68.7581C46.9745 65.1024 51.3128 59.9793 57.6519 59.9751C64.8353 59.9751 58.5498 70.2551 50.1025 73.5461C45.9789 75.1491 42.5385 80.2383 41.6455 83.4274C41.7236 76.96 41.665 72.4137 44.3197 68.7581Z" fill="#FF9900"/>
<path d="M37.8596 57.7062C33.2431 50.5984 22.9561 43.4482 11.9956 40.1954C7.69635 38.9232 7.27179 59.9751 30.4518 65.0133C37.9426 66.6419 40.9438 78.1602 42.4956 83.9533C42.3736 72.7022 42.4566 64.814 37.8596 57.7062Z" fill="#FF9900"/>
<path d="M40.3866 74.5597C37.4586 70.0304 29.4456 67.8167 22.2525 68.2408C19.4319 68.4062 19.1195 77.7023 34.8283 81.2943C39.5911 82.3843 41.5139 89.6744 42.5045 93.364C42.4215 86.1968 43.3243 79.0933 40.3866 74.5597Z" fill="#FF9900"/>
<path d="M40.6893 50.6283C38.4006 44.2924 31.6613 38.6138 25.4783 36.2685C23.0383 35.3483 22.3015 45.853 35.5799 56.1373C39.6059 59.2586 40.8747 68.3469 41.5335 72.9526C41.8312 64.7294 42.978 56.9643 40.6893 50.6283Z" fill="#FF9900"/>
<path d="M41.8996 108.05C37.0684 108.05 33.0765 107.745 32.8032 102.067L31.998 94.6152H51.806L51.0008 102.067C50.7226 107.745 46.7308 108.05 41.8996 108.05Z" fill="#FF9900"/>
<path d="M51.8798 97.6856H31.9255L31.3545 94.1953H52.4507L51.8798 97.6856Z" fill="#FF9900"/>
<path d="M121.999 158C174.255 158 216.618 155.851 216.618 153.199C216.618 150.548 174.255 148.398 121.999 148.398C69.7429 148.398 27.3809 150.548 27.3809 153.199C27.3809 155.851 69.7429 158 121.999 158Z" fill="#FF9900"/>
<path d="M35.4025 18.0792L34.915 18.0999L35.3932 26.6267L35.8806 26.6061L35.4025 18.0792Z" fill="#FF9900"/>
<path d="M36.0362 29.4901L35.5488 29.5107L35.7838 33.7L36.2712 33.6794L36.0362 29.4901Z" fill="#FF9900"/>
<path d="M188.728 104.633H42.2942C42.0697 104.632 41.8543 104.555 41.6933 104.419C41.5322 104.283 41.438 104.098 41.4305 103.903L36.1796 10.1786C36.1743 10.0772 36.1928 9.97595 36.2338 9.88093C36.2748 9.7859 36.3376 9.6991 36.4184 9.62576C36.4991 9.55242 36.5961 9.49408 36.7035 9.45425C36.811 9.41442 36.9266 9.39394 37.0434 9.39404H183.487C183.709 9.39374 183.923 9.46742 184.085 9.59995C184.246 9.73247 184.343 9.91375 184.356 10.1065L189.607 103.865C189.609 103.966 189.587 104.066 189.544 104.16C189.501 104.253 189.436 104.338 189.354 104.41C189.272 104.482 189.175 104.538 189.067 104.576C188.96 104.615 188.845 104.634 188.728 104.633Z" fill="#FF9900"/>
<path opacity="0.8" d="M43.1142 102.377L38.0341 11.697C38.0288 11.5954 38.0472 11.4939 38.0882 11.3987C38.1292 11.3034 38.1919 11.2164 38.2726 11.1427C38.3533 11.069 38.4502 11.0103 38.5577 10.97C38.6651 10.9297 38.7808 10.9087 38.8978 10.9082H181.789C182.012 10.908 182.226 10.9824 182.386 11.1159C182.547 11.2495 182.643 11.4318 182.653 11.6249L187.733 102.304C187.739 102.406 187.721 102.508 187.68 102.603C187.64 102.699 187.577 102.786 187.496 102.86C187.415 102.934 187.318 102.993 187.21 103.033C187.102 103.073 186.986 103.093 186.869 103.093H43.9779C43.7558 103.092 43.5425 103.018 43.3818 102.884C43.2212 102.751 43.1254 102.569 43.1142 102.377Z" fill="white"/>
<path d="M79.0073 98.0253C78.894 98.0245 78.7852 97.9864 78.7028 97.9187C78.6205 97.8511 78.5706 97.7589 78.5632 97.6606L74.0102 16.379C74.0016 16.3257 74.0059 16.2715 74.0228 16.2198C74.0397 16.1681 74.0689 16.12 74.1085 16.0786C74.148 16.0373 74.1971 16.0036 74.2525 15.9797C74.3079 15.9558 74.3685 15.9422 74.4303 15.9398C74.4921 15.9375 74.5538 15.9463 74.6115 15.9659C74.6691 15.9855 74.7214 16.0153 74.765 16.0534C74.8086 16.0916 74.8426 16.1372 74.8647 16.1874C74.8868 16.2377 74.8966 16.2913 74.8934 16.345L79.4514 97.6224C79.454 97.6731 79.4451 97.7238 79.4251 97.7715C79.4052 97.8192 79.3747 97.863 79.3352 97.9004C79.2958 97.9378 79.2483 97.9681 79.1953 97.9895C79.1424 98.011 79.0851 98.0231 79.0268 98.0253H79.0073Z" fill="white"/>
<path d="M151.319 98.0253C151.205 98.0245 151.097 97.9864 151.014 97.9187C150.932 97.8511 150.882 97.7589 150.875 97.6606L146.322 16.379C146.313 16.3257 146.317 16.2715 146.334 16.2198C146.351 16.1681 146.38 16.12 146.42 16.0786C146.46 16.0373 146.509 16.0036 146.564 15.9797C146.619 15.9558 146.68 15.9422 146.742 15.9398C146.804 15.9375 146.865 15.9463 146.923 15.9659C146.981 15.9855 147.033 16.0153 147.077 16.0534C147.12 16.0916 147.154 16.1372 147.176 16.1874C147.198 16.2377 147.208 16.2913 147.205 16.345L151.768 97.6224C151.77 97.6731 151.761 97.7238 151.742 97.7715C151.722 97.8192 151.691 97.863 151.652 97.9004C151.612 97.9378 151.565 97.9681 151.512 97.9895C151.459 98.011 151.402 98.0231 151.343 98.0253H151.319Z" fill="white"/>
<path d="M115.168 98.0253C115.055 98.0245 114.946 97.9864 114.864 97.9187C114.782 97.8511 114.732 97.7589 114.724 97.6606L110.166 16.379C110.158 16.3257 110.162 16.2715 110.179 16.2198C110.196 16.1681 110.225 16.12 110.265 16.0786C110.304 16.0373 110.353 16.0036 110.409 15.9797C110.464 15.9558 110.525 15.9422 110.587 15.9398C110.648 15.9375 110.71 15.9463 110.768 15.9659C110.825 15.9855 110.878 16.0153 110.921 16.0534C110.965 16.0916 110.999 16.1372 111.021 16.1874C111.043 16.2377 111.053 16.2913 111.05 16.345L115.603 97.6224C115.606 97.6729 115.598 97.7234 115.578 97.7711C115.559 97.8188 115.529 97.8626 115.49 97.9001C115.451 97.9376 115.404 97.968 115.351 97.9895C115.298 98.011 115.241 98.0231 115.183 98.0253H115.168Z" fill="white"/>
<path d="M178.92 24.7546H43.1927C43.1308 24.7603 43.0682 24.7545 43.0091 24.7378C42.9499 24.7211 42.8954 24.6938 42.8491 24.6576C42.8028 24.6214 42.7659 24.5772 42.7405 24.5278C42.7152 24.4784 42.7021 24.4249 42.7021 24.3708C42.7021 24.3167 42.7152 24.2632 42.7405 24.2138C42.7659 24.1644 42.8028 24.1202 42.8491 24.084C42.8954 24.0478 42.9499 24.0204 43.0091 24.0037C43.0682 23.987 43.1308 23.9813 43.1927 23.987H178.92C178.982 23.9813 179.045 23.987 179.104 24.0037C179.163 24.0204 179.218 24.0478 179.264 24.084C179.31 24.1202 179.347 24.1644 179.372 24.2138C179.398 24.2632 179.411 24.3167 179.411 24.3708C179.411 24.4249 179.398 24.4784 179.372 24.5278C179.347 24.5772 179.31 24.6214 179.264 24.6576C179.218 24.6938 179.163 24.7211 179.104 24.7378C179.045 24.7545 178.982 24.7603 178.92 24.7546Z" fill="white"/>
<path d="M47.2823 20.0049C47.5981 19.895 47.9391 19.8508 48.278 19.8759C48.6169 19.9009 48.9444 19.9945 49.2343 20.1491C49.7223 20.4205 50.02 20.9973 50.6349 21.1245C51.3327 21.2475 51.5474 20.7513 52.0403 20.4672C52.665 20.1067 53.6166 20.2679 54.3144 20.3145C56.1656 20.4333 58.0151 20.5746 59.863 20.7386C61.6881 20.8913 63.5327 21.1627 65.353 20.8531C65.9825 20.7471 65.7141 19.9116 65.0895 20.0049C63.2253 20.323 61.2489 19.9752 59.3798 19.8183C57.5108 19.6614 55.6271 19.513 53.7434 19.3942C53.1001 19.3252 52.4471 19.3862 51.8354 19.5723C51.5468 19.6836 51.2876 19.8452 51.0741 20.0473C50.996 20.1152 50.9179 20.2551 50.791 20.2382C50.6642 20.2212 50.5226 19.971 50.4738 19.9201C50.0494 19.5036 49.4906 19.2078 48.8701 19.0709C48.2496 18.934 47.5961 18.9624 46.9944 19.1525C46.4039 19.3561 46.6577 20.1915 47.2579 20.0007L47.2823 20.0049Z" fill="white"/>
<path d="M80.2321 21.2771C80.9739 20.7937 82.0914 20.149 82.7014 21.116C83.0088 21.5994 83.3065 22.1804 84.0727 22.0787C84.8388 21.9769 85.3464 21.1499 85.8832 20.7597C86.6835 20.1702 87.4936 19.9964 88.4305 20.4713C89.16 20.9297 89.9908 21.2517 90.8705 21.4171C91.7145 21.5083 92.5708 21.3892 93.3398 21.0736C93.7815 20.8552 94.2666 20.7113 94.7696 20.6495C95.3033 20.6852 95.8344 20.7461 96.3605 20.8318C97.4987 20.87 98.6377 20.7759 99.7472 20.5519C100.377 20.4501 100.108 19.6147 99.4789 19.7037C98.2743 19.9526 97.0286 20.0144 95.7993 19.8861C95.3533 19.7963 94.894 19.7677 94.4378 19.8013C94.0077 19.8677 93.5905 19.9861 93.1983 20.1533C92.1784 20.5392 91.1926 20.7258 90.1239 20.3144C89.2943 19.9964 88.6599 19.4069 87.7229 19.2881C86.9448 19.2196 86.1669 19.4191 85.5562 19.8437C85.2085 20.0788 84.8822 20.3368 84.5802 20.6155C84.4476 20.7659 84.3024 20.9077 84.1459 21.0396C83.9019 21.1965 83.8824 21.1796 83.736 20.9463C83.3797 20.3653 83.0381 19.8903 82.2378 19.7504C81.2862 19.585 80.4664 20.0345 79.7392 20.5095C79.2512 20.8403 79.7392 21.5909 80.2272 21.2559L80.2321 21.2771Z" fill="white"/>
<path d="M117.608 21.0395C118.189 20.802 118.779 20.5857 119.385 20.3991C119.975 20.1732 120.602 20.0301 121.244 19.975C121.805 19.975 122.298 20.2549 122.835 20.3567C123.248 20.4367 123.679 20.398 124.064 20.2464C124.416 20.1065 124.777 19.763 125.158 19.7078C125.538 19.6527 125.958 20.0895 126.334 20.2379C126.714 20.3761 127.132 20.4187 127.539 20.3609C127.915 20.3228 128.466 20.1531 128.818 20.3609C129.169 20.5687 129.242 20.9377 129.594 21.12C129.744 21.1992 129.915 21.2438 130.091 21.2497C130.267 21.2557 130.442 21.2227 130.599 21.154C130.95 21.0055 131.14 20.7299 131.433 20.5094C131.863 20.1955 132.36 20.3694 132.853 20.4712C133.295 20.5817 133.757 20.6191 134.215 20.5814C134.727 20.5221 135.323 20.2379 135.84 20.327C136.699 20.4754 137.143 21.2642 138.099 20.8571C138.675 20.6111 138.173 19.8647 137.611 20.1107C137.367 20.2125 136.66 19.6866 136.426 19.5848C136.005 19.4437 135.545 19.42 135.108 19.517C134.589 19.6665 134.043 19.7312 133.498 19.7078C133.041 19.6051 132.578 19.523 132.112 19.4618C131.698 19.4313 131.286 19.5306 130.95 19.7417C130.76 19.8647 130.35 20.4118 130.101 20.3652C129.989 20.3652 129.808 20.0216 129.74 19.9411C129.628 19.8109 129.491 19.6989 129.335 19.6103C128.992 19.4438 128.597 19.3783 128.208 19.4237C127.774 19.5177 127.325 19.545 126.88 19.5043C126.461 19.3982 126.182 19.042 125.763 18.9148C124.816 18.6306 124.362 19.3049 123.552 19.5127C123.03 19.6442 122.493 19.3219 122 19.2074C121.49 19.0908 120.954 19.0908 120.444 19.2074C119.298 19.4777 118.185 19.8442 117.12 20.3015C116.544 20.539 117.047 21.2854 117.608 21.0479V21.0395Z" fill="white"/>
<path d="M150.866 20.8065L153.525 20.1492C153.945 20.0431 154.37 19.9159 154.794 19.8353C155.211 19.7801 155.637 19.8473 156.004 20.0262C156.726 20.2182 157.482 20.2929 158.235 20.2467C159.123 20.2467 160.006 20.2467 160.894 20.217L171.777 20.1025C171.906 20.1025 172.03 20.0578 172.122 19.9783C172.213 19.8988 172.265 19.7909 172.265 19.6784C172.265 19.5659 172.213 19.4581 172.122 19.3785C172.03 19.299 171.906 19.2543 171.777 19.2543L160.665 19.3731C159.791 19.3731 158.918 19.3985 158.044 19.4028C157.613 19.4169 157.181 19.3927 156.756 19.3307C156.356 19.2543 156.019 19.0592 155.634 18.9659C154.906 18.7921 154.077 19.1313 153.389 19.3052L150.617 19.9922C150.553 20.0073 150.493 20.0331 150.44 20.0683C150.388 20.1035 150.343 20.1474 150.31 20.1974C150.277 20.2474 150.256 20.3026 150.247 20.3598C150.239 20.417 150.243 20.4751 150.261 20.5308C150.278 20.5865 150.308 20.6387 150.348 20.6844C150.389 20.7301 150.439 20.7684 150.497 20.7972C150.554 20.8259 150.618 20.8445 150.684 20.852C150.749 20.8594 150.816 20.8555 150.88 20.8404L150.866 20.8065Z" fill="white"/>
<path opacity="0.3" d="M79.8122 54.4538L56.2467 55.5565C54.9712 48.6556 54.3429 41.6761 54.3679 34.6869L77.3917 33.9277C77.7576 40.8036 78.5657 47.6564 79.8122 54.4538Z" fill="#FF9900"/>
<path d="M80.3493 53.5166L56.7837 54.6192C55.4347 47.8305 54.6195 40.9697 54.3438 34.0847L77.9093 32.9778C78.2814 39.8582 79.096 46.7152 80.3493 53.5166Z" fill="#FF9900"/>
<path opacity="0.3" d="M109.492 61.9817L85.7998 60.7391V40.3318L109.492 41.5744V61.9817Z" fill="#FF9900"/>
<path d="M109.18 61.5233L85.4922 60.2807L85.7703 39.7546L109.458 40.993L109.18 61.5233Z" fill="white"/>
<path opacity="0.3" d="M132.078 57.9825L155.76 57.3082C156.346 52.5711 153.769 40.6668 152.344 36.4343L129.374 37.7066C131.341 45.213 132.185 52.2784 132.078 57.9825Z" fill="#FF9900"/>
<path d="M132.483 57.3079L155.419 56.2816C156.004 51.5487 154.486 43.7921 152.774 35.7598L129.232 37.0575C131.175 44.5724 132.59 51.6039 132.483 57.3079Z" fill="#FF9900"/>
<path opacity="0.3" d="M67.129 89.5305L91.3045 87.4101C91.2411 82.6178 88.4058 71.4896 86.7271 67.3208L63.9277 69.6618C66.3677 77.0919 66.4556 83.8265 67.129 89.5305Z" fill="#FF9900"/>
<path d="M67.6999 89.2378L91.0067 87.0368C91.2947 82.27 89.2939 74.5727 87.1027 66.6167L63.7373 69.0298C65.6161 76.4769 67.4461 83.5465 67.6999 89.2378Z" fill="#FF9900"/>
<path opacity="0.3" d="M125.904 66.6718L149.436 70.4886C151.202 66.0272 151.656 54.0466 151.314 49.7081L128.344 46.5825C128.369 54.2077 127.422 61.1883 125.904 66.6718Z" fill="#FF9900"/>
<path d="M126.455 66.0994L149.318 69.4498C151.089 64.9883 151.538 57.2147 151.87 49.14L128.314 45.9338C128.344 53.559 127.992 60.6159 126.455 66.0994Z" fill="white"/>
<path d="M181.848 47.6172C182.336 48.0413 182.707 48.423 183.112 48.8386C183.517 49.2542 183.908 49.6571 184.288 50.0769C185.059 50.9251 185.791 51.7733 186.489 52.6639C187.187 53.5545 187.851 54.4663 188.441 55.4332C189.072 56.4038 189.625 57.4113 190.096 58.4485L190.276 58.8429L190.32 58.9405L190.379 59.0889L190.486 59.3773C190.54 59.5639 190.588 59.742 190.632 59.9201C190.676 60.0982 190.701 60.2594 190.725 60.4248C190.802 61.0302 190.826 61.6398 190.798 62.2484C190.742 63.3496 190.601 64.4463 190.374 65.5309C189.938 67.6183 189.31 69.6719 188.495 71.6717L185.928 71.1543C186.118 69.1611 186.294 67.1255 186.357 65.1661C186.396 64.216 186.379 63.2648 186.304 62.3162C186.27 61.8994 186.2 61.4855 186.094 61.0779L186.021 60.8277L185.928 60.6453L185.65 60.1576C184.647 58.4655 183.48 56.8509 182.161 55.3314C181.497 54.5469 180.799 53.7793 180.096 53.0159C179.745 52.63 179.384 52.2525 179.023 51.8793L177.949 50.7979L181.848 47.6172Z" fill="#B65B52"/>
<path d="M186.24 70.3186L184.464 71.9768L187.938 73.758C187.938 73.758 189.139 72.3712 188.67 70.9505L186.24 70.3186Z" fill="#B55B52"/>
<path d="M182.151 74.4281L185.533 75.4586L187.934 73.758L184.46 71.9768L182.151 74.4281Z" fill="#B55B52"/>
<path d="M191.891 81.2222L169.556 76.9813C170.67 70.4218 172.301 63.9363 174.436 57.5706L196.776 61.8115C194.729 68.1967 193.098 74.6773 191.891 81.2222Z" fill="#FF9900"/>
<path d="M195.413 62.7451L173.501 57.0754L166.977 76.1181L188.889 81.7877L195.413 62.7451Z" fill="white"/>
<path d="M169.189 34.8942C169.189 35.1402 169.013 35.3183 168.828 35.3183C168.643 35.3183 168.506 35.1105 168.521 34.8645C168.535 34.6185 168.696 34.4404 168.882 34.4404C169.067 34.4404 169.204 34.6482 169.189 34.8942Z" fill="#263238"/>
<path d="M169.038 35.3354C168.66 36.0757 168.168 36.7677 167.574 37.3923C167.761 37.5194 167.977 37.6092 168.209 37.6554C168.44 37.7016 168.68 37.703 168.911 37.6595L169.038 35.3354Z" fill="#A02724"/>
<path d="M170.312 33.5668C170.353 33.5595 170.389 33.54 170.415 33.5117C170.446 33.4847 170.463 33.4481 170.463 33.4099C170.463 33.3718 170.446 33.3352 170.415 33.3081C170.213 33.1647 169.975 33.065 169.721 33.017C169.466 32.9691 169.202 32.9744 168.951 33.0325C168.93 33.0382 168.91 33.0476 168.894 33.0599C168.877 33.0722 168.863 33.0872 168.853 33.1042C168.843 33.1212 168.837 33.1397 168.835 33.1586C168.834 33.1776 168.836 33.1967 168.843 33.2148C168.85 33.233 168.861 33.2498 168.875 33.2643C168.889 33.2789 168.906 33.2908 168.926 33.2995C168.945 33.3082 168.967 33.3134 168.988 33.3149C169.01 33.3164 169.032 33.3141 169.053 33.3081C169.254 33.2619 169.465 33.2586 169.669 33.2985C169.872 33.3383 170.061 33.4202 170.219 33.5371C170.247 33.5541 170.279 33.5644 170.312 33.5668Z" fill="#263238"/>
<path d="M177.68 38.4226C177.144 40.6576 176.797 43.7492 178.569 45.2378C178.569 45.2378 177.837 47.5024 173.059 47.5024C167.813 47.5024 170.565 45.5177 170.565 45.5177C172.756 44.9282 172.771 42.7696 172.298 41.035L177.68 38.4226Z" fill="#B55B52"/>
<path d="M166.569 150.239C166.12 150.239 165.686 150.184 165.54 150.01C165.502 149.963 165.481 149.908 165.481 149.851C165.481 149.794 165.502 149.738 165.54 149.692C165.568 149.649 165.606 149.612 165.651 149.583C165.696 149.554 165.748 149.533 165.803 149.522C166.389 149.387 167.609 149.993 167.657 150.018C167.673 150.025 167.686 150.037 167.694 150.05C167.702 150.064 167.704 150.08 167.701 150.095C167.697 150.109 167.688 150.122 167.676 150.132C167.664 150.143 167.649 150.15 167.633 150.154C167.282 150.209 166.926 150.237 166.569 150.239ZM166.023 149.645C165.969 149.64 165.915 149.64 165.862 149.645C165.793 149.659 165.734 149.695 165.696 149.747C165.637 149.836 165.657 149.883 165.696 149.908C165.857 150.103 166.745 150.107 167.399 150.027C166.973 149.823 166.506 149.693 166.023 149.645Z" fill="#FF9900"/>
<path d="M167.633 150.154H167.599C167.174 149.989 166.345 149.327 166.413 148.983C166.413 148.903 166.501 148.801 166.725 148.78C166.812 148.768 166.901 148.773 166.985 148.794C167.069 148.816 167.147 148.853 167.213 148.903C167.653 149.221 167.736 150.044 167.741 150.078C167.739 150.103 167.727 150.127 167.706 150.145C167.695 150.151 167.683 150.155 167.671 150.156C167.658 150.158 167.645 150.157 167.633 150.154ZM166.794 148.916H166.74C166.594 148.916 166.584 148.979 166.579 148.996C166.535 149.204 167.101 149.721 167.531 149.946C167.495 149.601 167.338 149.274 167.082 149.009C167.002 148.949 166.899 148.916 166.794 148.916Z" fill="#FF9900"/>
<path d="M171.639 150.082H168.126L167.882 143.017H171.395L171.639 150.082Z" fill="#B55B52"/>
<path d="M168.009 149.73H171.845C171.915 149.73 171.982 149.75 172.036 149.788C172.091 149.826 172.128 149.879 172.143 149.938L172.797 152.648C172.813 152.714 172.812 152.783 172.793 152.849C172.774 152.915 172.739 152.976 172.689 153.028C172.639 153.08 172.577 153.122 172.506 153.15C172.435 153.178 172.357 153.192 172.279 153.191C170.898 153.191 168.902 153.102 167.16 153.102C165.13 153.102 163.847 153.199 161.46 153.199C160.021 153.199 159.64 151.927 160.245 151.817C162.998 151.295 164.769 151.24 167.16 149.968C167.412 149.821 167.706 149.739 168.009 149.73Z" fill="#263238"/>
<path d="M179.98 45.6025C183.347 45.6364 188.056 53.058 188.056 53.058L182.834 57.6764C180.533 56.6103 178.673 54.945 177.515 52.9138C175.524 49.3854 176.539 45.5728 179.98 45.6025Z" fill="#FF9900"/>
<path opacity="0.3" d="M179.98 45.6025C183.347 45.6364 188.056 53.058 188.056 53.058L182.834 57.6764C180.533 56.6103 178.673 54.945 177.515 52.9138C175.524 49.3854 176.539 45.5728 179.98 45.6025Z" fill="black"/>
<path d="M164.007 48.9868C163.241 52.282 162.689 59.0547 164.578 72.4603H183.356C183.503 70.289 182.292 60.8105 183.898 50.6323C183.999 49.9823 183.944 49.3213 183.736 48.6908C183.529 48.0603 183.174 47.4738 182.693 46.9684C182.212 46.4629 181.616 46.0494 180.942 45.7537C180.269 45.4581 179.532 45.2868 178.779 45.2505H178.569C175.91 45.119 173.244 45.119 170.585 45.2505C169.707 45.3226 168.838 45.4329 168.067 45.5516C167.072 45.7047 166.153 46.114 165.429 46.7265C164.705 47.3391 164.21 48.1265 164.007 48.9868Z" fill="#FF9900"/>
<path opacity="0.2" d="M164.007 48.9868C163.241 52.282 162.689 59.0547 164.578 72.4603H183.356C183.503 70.289 182.292 60.8105 183.898 50.6323C183.999 49.9823 183.944 49.3213 183.736 48.6908C183.529 48.0603 183.174 47.4738 182.693 46.9684C182.212 46.4629 181.616 46.0494 180.942 45.7537C180.269 45.4581 179.532 45.2868 178.779 45.2505H178.569C175.91 45.119 173.244 45.119 170.585 45.2505C169.707 45.3226 168.838 45.4329 168.067 45.5516C167.072 45.7047 166.153 46.114 165.429 46.7265C164.705 47.3391 164.21 48.1265 164.007 48.9868Z" fill="black"/>
<path opacity="0.2" d="M168.326 55.7765L165.798 54.2837C163.358 54.975 163.231 57.0361 163.358 60.0132C165.457 59.5552 167.872 57.8249 168.326 55.7765Z" fill="black"/>
<path opacity="0.2" d="M167.882 143.017L168.009 146.66H171.522L171.395 143.017H167.882Z" fill="black"/>
<path d="M178.657 34.7077C178.257 37.7188 178.198 39.5 176.349 40.9885C173.567 43.2235 169.366 41.6925 168.721 38.6475C168.141 35.9079 168.892 31.438 172.367 30.3565C173.125 30.1117 173.943 30.0413 174.742 30.1521C175.54 30.2628 176.293 30.5511 176.925 30.9888C177.558 31.4265 178.05 31.9989 178.354 32.6505C178.657 33.3021 178.762 34.0107 178.657 34.7077Z" fill="#B55B52"/>
<path d="M171.258 35.9968C170.18 36.2088 169.692 33.9993 170.77 33.1511C169.794 32.727 168.384 32.1121 167.916 31.1876C167.374 30.1273 168.838 28.855 170.102 28.9102C169.692 28.2019 170.59 26.3105 173.167 27.023C175.743 27.7354 176.953 28.8381 176.953 28.8381C176.953 28.8381 177.803 26.3868 179.594 28.3673C181.18 30.1231 180.57 31.6286 180.57 31.6286C180.57 31.6286 182.931 33.5752 182.321 35.0214C181.981 35.8674 181.283 36.5693 180.369 36.9849C180.369 36.9849 180.726 40.3776 177.856 41.2258C174.987 42.074 173.176 40.3776 173.42 39.3853C171.566 39.4404 169.672 37.3199 171.258 35.9968Z" fill="#263238"/>
<path d="M172.508 35.772C172.379 36.5187 171.975 37.2089 171.357 37.7398C170.532 38.4311 169.771 37.9349 169.707 37.04C169.649 36.2343 170.01 34.9196 170.976 34.5464C171.942 34.1732 172.64 34.8729 172.508 35.772Z" fill="#B55B52"/>
<path d="M201.447 146.231L198.323 147.207L195.22 140.222L198.343 139.251L201.447 146.231Z" fill="#B55B52"/>
<path d="M196.937 147.648C196.586 147.89 196.205 148.072 195.961 148.021C195.9 148.003 195.846 147.969 195.808 147.923C195.77 147.878 195.748 147.823 195.747 147.767C195.739 147.718 195.743 147.668 195.759 147.621C195.774 147.574 195.799 147.53 195.834 147.491C196.2 147.067 197.586 146.889 197.645 146.885C197.662 146.882 197.679 146.884 197.695 146.89C197.71 146.896 197.724 146.906 197.733 146.918C197.741 146.931 197.746 146.946 197.746 146.961C197.746 146.976 197.741 146.99 197.733 147.003C197.489 147.237 197.223 147.453 196.937 147.648ZM196.088 147.478C196.042 147.506 196.002 147.54 195.971 147.58C195.929 147.627 195.91 147.686 195.917 147.745C195.917 147.847 195.981 147.873 196.015 147.881C196.279 147.949 196.991 147.478 197.44 147.063C196.962 147.123 196.503 147.264 196.088 147.478Z" fill="#FF9900"/>
<path d="M197.713 147.012C197.704 147.015 197.693 147.015 197.684 147.012C197.235 147.109 196.113 147.037 195.922 146.727C195.878 146.655 195.859 146.541 196.025 146.401C196.084 146.351 196.154 146.312 196.232 146.286C196.309 146.261 196.391 146.249 196.474 146.252C197.045 146.252 197.694 146.867 197.723 146.893C197.73 146.903 197.733 146.915 197.733 146.927C197.733 146.939 197.73 146.95 197.723 146.961C197.726 146.969 197.726 146.978 197.724 146.987C197.723 146.996 197.719 147.004 197.713 147.012ZM196.176 146.49C196.161 146.498 196.148 146.508 196.137 146.52C196.03 146.609 196.059 146.655 196.069 146.672C196.181 146.855 196.991 146.961 197.489 146.91C197.218 146.653 196.861 146.478 196.469 146.409C196.363 146.404 196.259 146.433 196.176 146.49Z" fill="#FF9900"/>
<path d="M197.728 146.46L200.744 144.399C200.8 144.362 200.869 144.342 200.939 144.342C201.01 144.342 201.078 144.362 201.135 144.399L203.726 146.096C203.787 146.135 203.837 146.187 203.872 146.246C203.906 146.305 203.924 146.371 203.924 146.437C203.924 146.504 203.906 146.569 203.872 146.628C203.837 146.688 203.787 146.739 203.726 146.778C202.623 147.504 200.495 148.996 199.197 149.997C197.68 151.172 198.86 150.387 197.079 151.766C196.001 152.614 194.683 151.918 195.044 151.49C196.674 149.531 197.021 148.365 197.235 147.114C197.295 146.848 197.472 146.614 197.728 146.46Z" fill="#263238"/>
<path d="M146.435 56.5611L145.063 53.9954L141.33 56.0013C141.33 56.0013 142.56 58.1854 145.107 57.9479L146.435 56.5611Z" fill="#B55B52"/>
<path d="M141.554 53.2998L140.72 53.9232C140.592 54.0186 140.489 54.1364 140.417 54.2688C140.345 54.4012 140.306 54.5453 140.302 54.6917C140.298 54.8381 140.33 54.9836 140.395 55.1186C140.461 55.2536 140.558 55.3752 140.681 55.4754L141.33 56.0012L145.063 53.9953L142.823 53.1471C142.617 53.0663 142.388 53.0378 142.164 53.0648C141.939 53.0918 141.728 53.1733 141.554 53.2998Z" fill="#B55B52"/>
<path opacity="0.2" d="M195.22 140.222L196.82 143.822L199.944 142.851L198.343 139.251L195.22 140.222Z" fill="black"/>
<path d="M171.239 72.4602C171.239 72.4602 177.095 95.8998 179.34 104.602C181.78 114.127 194.707 143.097 194.707 143.097L200.378 140.425C200.378 140.425 194.312 117.698 189.881 105.302C188.27 95.0559 183.356 72.4602 183.356 72.4602H171.239Z" fill="#263238"/>
<path d="M193.112 141.647C193.083 141.647 194.273 143.56 194.273 143.56L201.291 141.269L200.734 139.408L193.112 141.647Z" fill="#FF9900"/>
<path opacity="0.3" d="M174.704 83.3258C179.125 83.839 179.623 97.3718 179.54 105.315C179.481 105.065 179.413 104.827 179.359 104.603C178.134 99.8485 175.836 90.6965 173.991 83.3682C174.222 83.3081 174.466 83.2936 174.704 83.3258Z" fill="black"/>
<path d="M164.578 72.4602C164.578 72.4602 163.085 95.2764 163.329 104.581C163.582 114.263 166.711 145.955 166.711 145.955H172.659C172.659 145.955 173.635 114.827 174.035 105.323C174.48 94.9583 176.924 72.4602 176.924 72.4602H164.578Z" fill="#263238"/>
<path d="M165.599 143.895C165.569 143.895 165.901 146.04 165.901 146.04H173.138L173.363 144.128L165.599 143.895Z" fill="#FF9900"/>
<path d="M169.638 50.5645C168.827 51.82 167.922 53.0284 166.93 54.182C165.946 55.3202 164.889 56.4091 163.763 57.4433C162.65 58.4738 161.474 59.4492 160.269 60.3738C159.063 61.2983 157.804 62.1804 156.672 62.9904L156.272 63.2788L155.94 63.3806C155.132 63.631 154.268 63.7138 153.417 63.6223C152.719 63.5552 152.033 63.4098 151.377 63.1897C150.278 62.786 149.246 62.2568 148.308 61.6163C147.441 61.0309 146.625 60.3902 145.868 59.6994C145.497 59.3644 145.146 59.0124 144.799 58.6604C144.453 58.3084 144.131 57.9522 143.794 57.5493L145.722 55.9844C146.468 56.4679 147.273 56.9937 148.079 57.4433C148.855 57.9047 149.66 58.3294 150.489 58.7155C151.225 59.0685 152.007 59.3447 152.817 59.5383C153.118 59.609 153.428 59.6419 153.739 59.6358C153.903 59.6372 154.063 59.5991 154.203 59.5256L153.476 59.9157C154.667 58.9488 155.745 58.0837 156.819 57.1719C157.892 56.2601 158.902 55.3355 159.874 54.3813C160.845 53.4271 161.772 52.4432 162.626 51.4127C163.48 50.3821 164.27 49.3473 165.017 48.2871L169.638 50.5645Z" fill="#B65B52"/>
<path d="M172.137 49.9243C171.8 54.3137 166.007 57.9821 166.007 57.9821L158.492 54.3985C158.492 54.3985 161.259 49.2288 164.987 46.786C169.599 43.7877 172.39 46.5825 172.137 49.9243Z" fill="#FF9900"/>
<path opacity="0.2" d="M172.137 49.9243C171.8 54.3137 166.007 57.9821 166.007 57.9821L158.492 54.3985C158.492 54.3985 161.259 49.2288 164.987 46.786C169.599 43.7877 172.39 46.5825 172.137 49.9243Z" fill="black"/>
</svg>
