<svg width="8" height="9" viewBox="0 0 8 9" fill="none" xmlns="http://www.w3.org/2000/svg">
<path d="M5.29918 5.50725C5.2412 5.48906 4.87475 5.3306 5.10374 4.66283H5.10046C5.69736 4.07307 6.15351 3.12406 6.15351 2.18975C6.15351 0.753119 5.1577 0 4.00037 0C2.8423 0 1.85196 0.752769 1.85196 2.18975C1.85196 3.12791 2.30556 4.08076 2.90611 4.66913C3.1402 5.25819 2.7216 5.47682 2.63409 5.5076C1.42206 5.92806 0 6.69447 0 7.45109V7.73477C0 8.76563 2.0835 9 4.01167 9C5.94275 9 8 8.76563 8 7.73477V7.45109C8 6.67173 6.57101 5.91127 5.29918 5.50725Z" fill="#FF9900"/>
</svg>
