<svg width="32" height="32" viewBox="0 0 32 32" fill="none" xmlns="http://www.w3.org/2000/svg">
<path d="M15.6949 0.00271486C24.5723 -0.151293 31.8407 6.91412 31.9973 15.7012C32.1557 24.563 25.1652 31.8169 16.3334 31.9967C7.40599 32.1782 0.131577 25.1128 0.00164592 16.2406C-0.128285 7.35205 6.91982 0.188556 15.6949 0.00271486ZM16.0038 6.19485C10.5846 6.19829 6.19358 10.5845 6.19014 15.9971C6.1867 21.3951 10.5777 25.8054 15.9599 25.8114C21.4067 25.8175 25.8157 21.4141 25.808 15.9739C25.802 10.5845 21.3964 6.19141 16.0038 6.19485ZM5.14381 15.7149C5.20318 15.1927 5.23072 14.7117 5.31504 14.2411C6.1867 9.37738 9.89446 5.85414 14.7733 5.22778C14.899 5.21144 15.0504 5.11766 15.1244 5.01355C15.5194 4.45086 15.8859 3.86839 16.28 3.30484C16.3936 3.14137 16.3781 3.0321 16.2723 2.87982C15.9126 2.35843 15.5598 1.83102 15.219 1.29672C15.1132 1.13067 15.0022 1.07044 14.8026 1.08593C13.684 1.17627 12.5826 1.36383 11.5233 1.72949C6.00256 3.63695 2.58994 7.44498 1.31989 13.145C1.13747 13.9623 1.09616 14.8098 0.989465 15.6444C1.02302 15.6564 1.05572 15.6693 1.08928 15.6814C1.58749 15.351 2.0857 15.0206 2.58478 14.6902C3.0718 14.3676 3.12773 14.3693 3.61992 14.6988C4.11555 15.0318 4.61462 15.3622 5.14381 15.7149ZM16.2878 5.14777C16.8135 5.20714 17.2954 5.23467 17.7669 5.31984C22.638 6.20087 26.1332 9.8807 26.776 14.7814C26.7924 14.907 26.8896 15.0559 26.9937 15.1299C27.5565 15.5248 28.1364 15.8947 28.7035 16.2836C28.8463 16.3817 28.9504 16.3963 29.1019 16.2905C29.6311 15.9231 30.168 15.5652 30.7118 15.2193C30.8805 15.1118 30.9329 14.9974 30.9166 14.8003C30.6765 11.9456 29.718 9.35673 27.9936 7.07157C25.5903 3.8856 22.4031 1.94631 18.4733 1.24768C17.7746 1.12379 17.0605 1.08851 16.2585 1.00161C16.6535 1.59527 16.9847 2.09429 17.316 2.59245C17.6327 3.06996 17.6327 3.12416 17.316 3.59995C16.9796 4.10671 16.6431 4.61348 16.2878 5.14777ZM26.8552 16.2896C26.7941 16.8196 26.7674 17.304 26.6796 17.7764C25.7787 22.665 22.1286 26.1272 17.2128 26.7776C17.0957 26.7931 16.9546 26.8792 16.8866 26.9755C16.4865 27.5477 16.1096 28.1362 15.713 28.7109C15.6106 28.8598 15.614 28.963 15.7155 29.1093C16.0812 29.6393 16.4418 30.1744 16.7868 30.719C16.8961 30.8911 17.0166 30.9324 17.2093 30.9169C19.5068 30.7294 21.6614 30.0703 23.625 28.8675C27.6967 26.3724 30.0966 22.7459 30.8245 18.0233C30.9097 17.4709 30.9286 16.9091 30.9854 16.275C30.3762 16.6785 29.8427 17.0175 29.3264 17.3806C29.0261 17.5914 28.7706 17.5811 28.4746 17.372C27.9592 17.0072 27.4248 16.6682 26.8552 16.2896ZM15.7147 26.8559C15.1984 26.7992 14.7286 26.7708 14.2674 26.6925C9.44702 25.8751 5.85284 22.1153 5.22556 17.2593C5.20663 17.1156 5.09907 16.9435 4.98032 16.8592C4.42876 16.4677 3.85311 16.1098 3.29896 15.7218C3.13375 15.6057 3.02448 15.6297 2.87389 15.7338C2.36105 16.0875 1.84391 16.4351 1.31644 16.7672C1.12886 16.885 1.06347 17.0106 1.08326 17.2352C1.35689 20.3446 2.47033 23.1159 4.46146 25.5155C6.83205 28.3719 9.86865 30.1125 13.5231 30.7569C14.2226 30.8799 14.9377 30.9169 15.7405 31.0047C15.3464 30.4119 15.0151 29.9137 14.6847 29.4156C14.3655 28.9338 14.3655 28.8813 14.6813 28.4081C15.0186 27.9013 15.3559 27.3945 15.7147 26.8559Z" fill="#515151"/>
</svg>
