<svg width="31" height="26" viewBox="0 0 31 26" fill="none" xmlns="http://www.w3.org/2000/svg">
<path d="M28.5 2.0625C28.5 1.7144 28.3617 1.38056 28.1156 1.13442C27.8694 0.888281 27.5356 0.75 27.1875 0.75H1.8125C1.4644 0.75 1.13056 0.888281 0.884422 1.13442C0.638281 1.38056 0.5 1.7144 0.5 2.0625C0.5 2.4106 0.638281 2.74444 0.884422 2.99058C1.13056 3.23672 1.4644 3.375 1.8125 3.375H27.1875C27.5356 3.375 27.8694 3.23672 28.1156 2.99058C28.3617 2.74444 28.5 2.4106 28.5 2.0625ZM28.5 7.3125C28.5 6.9644 28.3617 6.63056 28.1156 6.38442C27.8694 6.13828 27.5356 6 27.1875 6H1.8125C1.4644 6 1.13056 6.13828 0.884422 6.38442C0.638281 6.63056 0.5 6.9644 0.5 7.3125C0.5 7.6606 0.638281 7.99444 0.884422 8.24058C1.13056 8.48672 1.4644 8.625 1.8125 8.625H18.3605C19.6197 8.04673 20.9893 7.74821 22.375 7.75C23.7607 7.74821 25.1303 8.04673 26.3895 8.625H27.1875C27.5356 8.625 27.8694 8.48672 28.1156 8.24058C28.3617 7.99444 28.5 7.6606 28.5 7.3125ZM12.9075 19.125H1.8125C1.4644 19.125 1.13056 18.9867 0.884422 18.7406C0.638281 18.4944 0.5 18.1606 0.5 17.8125C0.5 17.4644 0.638281 17.1306 0.884422 16.8844C1.13056 16.6383 1.4644 16.5 1.8125 16.5H12.7885C12.7101 17.3764 12.7507 18.2595 12.9092 19.125H12.9075ZM13.4062 13.875H1.8125C1.4644 13.875 1.13056 13.7367 0.884422 13.4906C0.638281 13.2444 0.5 12.9106 0.5 12.5625C0.5 12.2144 0.638281 11.8806 0.884422 11.6344C1.13056 11.3883 1.4644 11.25 1.8125 11.25H14.9497C14.2991 12.0375 13.7781 12.9236 13.4062 13.875ZM30.25 17.375C30.25 19.4636 29.4203 21.4666 27.9435 22.9435C26.4666 24.4203 24.4636 25.25 22.375 25.25C20.2864 25.25 18.2834 24.4203 16.8065 22.9435C15.3297 21.4666 14.5 19.4636 14.5 17.375C14.5 15.2864 15.3297 13.2834 16.8065 11.8065C18.2834 10.3297 20.2864 9.5 22.375 9.5C24.4636 9.5 26.4666 10.3297 27.9435 11.8065C29.4203 13.2834 30.25 15.2864 30.25 17.375ZM22.375 18.6122L24.3805 20.6195C24.4619 20.7009 24.5584 20.7654 24.6647 20.8094C24.771 20.8534 24.8849 20.8761 25 20.8761C25.1151 20.8761 25.229 20.8534 25.3353 20.8094C25.4416 20.7654 25.5381 20.7009 25.6195 20.6195C25.7009 20.5381 25.7654 20.4416 25.8094 20.3353C25.8534 20.229 25.8761 20.1151 25.8761 20C25.8761 19.8849 25.8534 19.771 25.8094 19.6647C25.7654 19.5584 25.7009 19.4619 25.6195 19.3805L23.6122 17.375L25.6195 15.3695C25.7838 15.2052 25.8761 14.9824 25.8761 14.75C25.8761 14.5176 25.7838 14.2948 25.6195 14.1305C25.4552 13.9662 25.2324 13.8739 25 13.8739C24.7676 13.8739 24.5448 13.9662 24.3805 14.1305L22.375 16.1378L20.3695 14.1305C20.2052 13.9662 19.9824 13.8739 19.75 13.8739C19.5176 13.8739 19.2948 13.9662 19.1305 14.1305C18.9662 14.2948 18.8739 14.5176 18.8739 14.75C18.8739 14.9824 18.9662 15.2052 19.1305 15.3695L21.1378 17.375L19.1305 19.3805C19.0491 19.4619 18.9846 19.5584 18.9406 19.6647C18.8966 19.771 18.8739 19.8849 18.8739 20C18.8739 20.1151 18.8966 20.229 18.9406 20.3353C18.9846 20.4416 19.0491 20.5381 19.1305 20.6195C19.2119 20.7009 19.3084 20.7654 19.4147 20.8094C19.521 20.8534 19.6349 20.8761 19.75 20.8761C19.8651 20.8761 19.979 20.8534 20.0853 20.8094C20.1916 20.7654 20.2881 20.7009 20.3695 20.6195L22.375 18.6122Z" fill="#FFDDA9"/>
</svg>
