<svg width="20" height="20" viewBox="0 0 20 20" fill="none" xmlns="http://www.w3.org/2000/svg">
<path fill-rule="evenodd" clip-rule="evenodd" d="M17.4667 14.6666V16.5333C17.4667 17.0485 16.9207 17.4666 16.4055 17.4666H13.7334V13.7333H16.4055C16.9207 13.7333 17.4667 14.1514 17.4667 14.6666ZM11.8667 11.8666V13.7333V17.4666H8.13341V8.13329H10.8055C11.3207 8.13329 11.8667 8.55143 11.8667 9.06663V11.8666ZM6.26675 6.26663V8.13329V17.4666H3.33888C2.82275 17.4666 2.53341 17.0485 2.53341 16.5333V3.46663C2.53341 2.95143 2.82275 2.53329 3.33888 2.53329H5.20555C5.72075 2.53329 6.26675 2.95143 6.26675 3.46663V6.26663ZM13.7334 8.13329C13.7334 7.10196 12.7693 6.26663 11.7389 6.26663H8.13341V2.53329C8.13341 1.50196 7.16928 0.666626 6.13888 0.666626H2.40555C1.37421 0.666626 0.666748 1.50196 0.666748 2.53329V17.4666C0.666748 18.498 1.43861 19.3333 2.46901 19.3333H2.40555H6.13888H8.00555H11.7389H13.6055H17.3389C18.3693 19.3333 19.3334 18.498 19.3334 17.4666V13.7333C19.3334 12.7029 18.4981 11.8685 17.4686 11.8676L13.7334 11.8666V8.13329Z" fill="#F7991A"/>
</svg>
