<svg width="21" height="19" viewBox="0 0 21 19" fill="none" xmlns="http://www.w3.org/2000/svg">
<path d="M17.4462 18.2083V14.25C18.5769 14.0917 19.3846 13.1417 19.3846 11.875C19.3846 10.6083 18.2538 9.5 16.9615 9.5C15.6692 9.5 14.5385 10.6083 14.5385 11.875C14.5385 12.9833 15.3462 14.0917 16.4769 14.25V18.2083H9.69231V0H1.61538V18.2083H0V19H21V18.2083H17.4462ZM8.07692 14.25H3.23077V12.6667H8.07692V14.25ZM8.07692 11.0833H3.23077V9.5H8.07692V11.0833ZM8.07692 7.91667H3.23077V6.33333H8.07692V7.91667ZM8.07692 4.75H3.23077V3.16667H8.07692V4.75Z" fill="#F7991A"/>
</svg>
