<svg width="30" height="34" viewBox="0 0 30 34" fill="none" xmlns="http://www.w3.org/2000/svg">
<path d="M10.6481 24.9983L15.3065 20.34L19.9648 24.9983L22.4731 22.49L17.8148 17.8316L22.4731 13.1733L19.9648 10.665L15.3065 15.3233L10.6481 10.665L8.13981 13.1733L12.7981 17.8316L8.13981 22.49L10.6481 24.9983ZM6.34814 33.0608C5.36273 33.0608 4.51945 32.7102 3.81831 32.0091C3.11598 31.3067 2.76481 30.4629 2.76481 29.4775V6.18579H0.973145V2.60246H9.93148V0.810791H20.6815V2.60246H29.6398V6.18579H27.8481V29.4775C27.8481 30.4629 27.4976 31.3067 26.7964 32.0091C26.0941 32.7102 25.2502 33.0608 24.2648 33.0608H6.34814ZM24.2648 6.18579H6.34814V29.4775H24.2648V6.18579ZM6.34814 6.18579V29.4775V6.18579Z" fill="#FFDDA9"/>
</svg>
