<svg width="241" height="29" viewBox="0 0 241 29" fill="none" xmlns="http://www.w3.org/2000/svg">
<path d="M0.00756836 25.4417L0.539185 20.5052L1.83026 20.5812C1.83026 21.9735 2.66059 23.0924 4.32126 23.938C5.97687 24.7885 7.86284 25.2138 9.97919 25.2138C12.0905 25.2138 13.6777 24.8898 14.741 24.2417C15.8042 23.5987 16.3358 22.7836 16.3358 21.7963C16.3358 20.1255 15.4498 18.6319 13.6777 17.3155C12.9436 16.7839 12.1715 16.3156 11.3614 15.9105C9.51339 14.9486 8.35649 14.3334 7.89069 14.0651C7.41983 13.8018 6.89328 13.5309 6.31103 13.2525C5.72878 12.974 5.1921 12.6753 4.70099 12.3563C4.20481 12.0424 3.67826 11.6576 3.12133 11.2019C1.85557 10.1893 1.22269 9.05521 1.22269 7.79958C1.22269 6.54902 1.44547 5.4554 1.89101 4.51875C2.33149 3.58209 2.88843 2.84795 3.56181 2.31633C4.23013 1.78472 5.01996 1.3417 5.9313 0.987291C7.47552 0.430359 9.20454 0.151891 11.1184 0.151891C13.0271 0.151891 14.8675 0.632879 16.6396 1.59485L16.1839 5.99968H14.8928C14.8928 3.62006 12.893 2.43025 8.89317 2.43025C7.04517 2.43025 5.66043 2.72137 4.73896 3.30362C3.81243 3.88587 3.34916 4.68329 3.34916 5.6959C3.34916 7.31606 5.98193 9.26533 11.2475 11.5437C14.7156 13.0373 16.9307 14.6954 17.8927 16.5181C18.3737 17.4294 18.6142 18.4294 18.6142 19.5179C18.6142 22.1507 17.5585 24.1886 15.4472 25.6315C13.3309 27.0745 10.7791 27.796 7.79196 27.796C4.80478 27.796 2.20998 27.0112 0.00756836 25.4417ZM46.0304 4.55672L37.5245 26.8846C37.4992 26.8846 37.4359 26.8846 37.3347 26.8846C37.2334 26.8846 36.841 27.1378 36.1575 27.6441L27.4238 4.78455L25.6011 24.6822C25.5505 25.0873 25.7404 25.429 26.1707 25.7075C26.6011 25.9859 27.196 26.1252 27.9554 26.1252H29.5503V27.2644H20.4369V26.1252H21.652C23.1203 26.1252 23.905 25.5682 24.0063 24.4544L25.9049 3.49348C25.9555 3.0125 25.7834 2.61252 25.3885 2.29355C24.9986 1.97964 24.386 1.82269 23.5506 1.82269H22.3355V0.683509H29.4743L37.6005 22.1001L45.8026 0.683509H52.6377V1.74674H51.1188C49.9036 1.74674 49.2961 2.21507 49.2961 3.15173C49.2961 3.22768 49.2961 3.31628 49.2961 3.41754L51.0428 24.4544C51.0934 25.0366 51.2377 25.4619 51.4757 25.7303C51.7187 25.9935 52.1567 26.1252 52.7895 26.1252H54.3085V27.2644H44.5875V26.1252H45.8785C46.5873 26.1252 47.0683 26.0113 47.3215 25.7834C47.5746 25.5556 47.7012 25.3075 47.7012 25.0392C47.7012 24.7759 47.7012 24.581 47.7012 24.4544L46.0304 4.55672ZM82.3702 26.2011V27.2644H72.6492V26.2011H73.8644C74.9782 26.2011 75.5352 25.8467 75.5352 25.1379C75.5352 25.0366 75.4086 24.6063 75.1554 23.8468L72.5733 17.0877H63.0042L60.498 23.543C60.498 23.5937 60.4094 23.9025 60.2322 24.4696C60.055 25.0417 59.9664 25.4341 59.9664 25.6467C59.9664 25.8644 60.1056 26.0113 60.3841 26.0872C60.6625 26.1632 61.2574 26.2011 62.1688 26.2011H62.7764V27.2644H55.3337V26.2011H55.8653C56.7007 26.2011 57.3083 26.0543 57.688 25.7606C58.0677 25.4721 58.3968 24.986 58.6753 24.3025L67.0293 2.5062C67.1559 2.48088 67.3837 2.29608 67.7128 1.95179C68.0419 1.61257 68.3457 1.25816 68.6241 0.888561C68.9026 0.524024 69.0418 0.31644 69.0418 0.26581C69.0418 0.21518 69.0292 0.177206 69.0039 0.151891L69.5355 0L78.8768 24.4544C79.1552 25.0366 79.4388 25.4721 79.7273 25.7606C80.021 26.0543 80.4463 26.2011 81.0032 26.2011H82.3702ZM63.6118 15.4928H71.8898L67.7887 4.63266L63.6118 15.4928ZM84.2613 0.683509H90.1091L97.3239 0.303782C99.5516 0.303782 101.374 0.77211 102.792 1.70877C104.21 2.64543 104.918 3.92384 104.918 5.54401C104.918 7.79705 104.311 9.63239 103.096 11.05C101.881 12.4677 100.387 13.5436 98.6149 14.2777L104.767 23.543C105.02 23.9481 105.508 24.4924 106.232 25.1759C106.951 25.8594 107.602 26.2011 108.184 26.2011H108.868V27.2644H103.248C103.324 27.2644 103.083 26.8846 102.526 26.1252C101.969 25.3657 101.653 24.9101 101.577 24.7582L95.2733 15.0372C95.0202 15.0878 94.5139 15.1131 93.7544 15.1131C92.995 15.1131 92.3874 15.0878 91.9318 15.0372L91.628 13.5183C91.9824 13.5689 92.7418 13.5942 93.9063 13.5942C95.0708 13.5942 96.2353 13.4423 97.3998 13.1385C98.5643 12.8348 99.5896 12.2576 100.476 11.407C101.362 10.5615 101.805 9.46785 101.805 8.12615C101.805 4.37951 99.3997 2.5062 94.5898 2.5062L90.6407 2.65809V24.4544C90.6407 24.8341 90.666 25.1252 90.7166 25.3278C90.7673 25.5303 90.9318 25.7252 91.2103 25.9125C91.4887 26.1049 91.9064 26.2011 92.4634 26.2011H93.9063V27.2644H84.2613V26.2011H85.4764C86.0333 26.2011 86.451 26.1049 86.7295 25.9125C87.008 25.7252 87.1725 25.5303 87.2231 25.3278C87.2738 25.1252 87.2991 24.8341 87.2991 24.4544V3.49348C87.2991 2.91124 87.1801 2.48594 86.9421 2.2176C86.6991 1.95433 86.2105 1.82269 85.4764 1.82269H84.2613V0.683509ZM124.892 26.2011V27.2644H115.019V26.2011H116.538C117.297 26.2011 117.778 26.0543 117.981 25.7606C118.184 25.4721 118.285 25.0619 118.285 24.5303V4.0251C118.285 3.64537 118.259 3.34666 118.209 3.12895C118.158 2.9163 118.001 2.72137 117.738 2.54417C117.47 2.36696 117.07 2.27836 116.538 2.27836H114.26C112.918 2.27836 111.888 2.68846 111.169 3.50867C110.445 4.33395 110.057 5.21491 110.007 6.15157L108.943 5.92373L109.323 0.683509H130.664L131.044 5.92373L129.98 6.15157C129.93 5.24023 129.537 4.36686 128.803 3.53146C128.069 2.69606 127.044 2.27836 125.727 2.27836H123.449C122.892 2.27836 122.474 2.37456 122.196 2.56695C121.917 2.75428 121.753 2.94921 121.702 3.15173C121.652 3.35425 121.626 3.64537 121.626 4.0251V24.5303C121.626 24.8847 121.652 25.1632 121.702 25.3657C121.753 25.5682 121.917 25.7581 122.196 25.9353C122.474 26.1125 122.892 26.2011 123.449 26.2011H124.892ZM162.181 22.9355V18.2269C162.181 17.8725 162.156 17.594 162.105 17.3915C162.055 17.189 161.89 16.9991 161.612 16.8219C161.333 16.6447 160.915 16.5561 160.358 16.5561H158.991V15.4928H167.877V16.5561H167.269C166.51 16.5561 166.016 16.7004 165.789 16.989C165.561 17.2826 165.447 17.6953 165.447 18.2269V22.1001C161.801 26.0492 157.827 28.0238 153.523 28.0238C150.637 28.0238 148.068 26.7454 145.815 24.1886C143.562 21.6318 142.435 18.7585 142.435 15.5688C142.435 11.4424 143.959 7.81477 147.007 4.68583C150.06 1.56194 153.625 0 157.7 0C159.219 0 161.27 0.430357 163.852 1.29107L164.08 6.5313H162.713C162.713 4.25294 160.485 3.11376 156.03 3.11376C152.966 3.11376 150.364 3.95422 148.222 5.63514C146.086 7.32113 145.018 9.721 145.018 12.8348C145.018 14.5815 145.288 16.1763 145.83 17.6193C146.377 19.0623 147.068 20.2394 147.903 21.1508C148.739 22.0621 149.675 22.8342 150.713 23.4671C152.637 24.581 154.498 25.1379 156.295 25.1379C158.093 25.1379 160.055 24.4038 162.181 22.9355ZM194.944 26.2011V27.2644H185.223V26.2011H186.438C187.552 26.2011 188.109 25.8467 188.109 25.1379C188.109 25.0366 187.982 24.6063 187.729 23.8468L185.147 17.0877H175.578L173.072 23.543C173.072 23.5937 172.983 23.9025 172.806 24.4696C172.629 25.0417 172.54 25.4341 172.54 25.6467C172.54 25.8644 172.679 26.0113 172.958 26.0872C173.236 26.1632 173.831 26.2011 174.743 26.2011H175.35V27.2644H167.907V26.2011H168.439C169.274 26.2011 169.882 26.0543 170.262 25.7606C170.641 25.4721 170.971 24.986 171.249 24.3025L179.603 2.5062C179.73 2.48088 179.957 2.29608 180.287 1.95179C180.616 1.61257 180.919 1.25816 181.198 0.888561C181.476 0.524024 181.616 0.31644 181.616 0.26581C181.616 0.21518 181.603 0.177206 181.578 0.151891L182.109 0L191.45 24.4544C191.729 25.0366 192.015 25.4721 192.309 25.7606C192.597 26.0543 193.02 26.2011 193.577 26.2011H194.944ZM176.185 15.4928H184.464L180.362 4.63266L176.185 15.4928ZM210.285 26.2011V27.2644H200.412V26.2011H201.931C202.69 26.2011 203.171 26.0543 203.374 25.7606C203.576 25.4721 203.678 25.0619 203.678 24.5303V4.0251C203.678 3.64537 203.652 3.34666 203.602 3.12895C203.551 2.9163 203.394 2.72137 203.131 2.54417C202.863 2.36696 202.463 2.27836 201.931 2.27836H199.653C198.311 2.27836 197.281 2.68846 196.562 3.50867C195.838 4.33395 195.45 5.21491 195.4 6.15157L194.336 5.92373L194.716 0.683509H216.057L216.436 5.92373L215.373 6.15157C215.323 5.24023 214.93 4.36686 214.196 3.53146C213.462 2.69606 212.437 2.27836 211.12 2.27836H208.842C208.285 2.27836 207.867 2.37456 207.589 2.56695C207.31 2.75428 207.146 2.94921 207.095 3.15173C207.045 3.35425 207.019 3.64537 207.019 4.0251V24.5303C207.019 24.8847 207.045 25.1632 207.095 25.3657C207.146 25.5682 207.31 25.7581 207.589 25.9353C207.867 26.1125 208.285 26.2011 208.842 26.2011H210.285ZM240.131 22.0241L238.84 27.2644H218.487V26.2011H219.778C220.512 26.2011 220.998 26.0619 221.236 25.7834C221.479 25.505 221.601 25.0619 221.601 24.4544V3.49348C221.601 2.98718 221.441 2.56948 221.122 2.24039C220.808 1.91129 220.36 1.74674 219.778 1.74674H218.487V0.683509H238.537L238.84 5.92373L237.777 6.15157C237.777 5.24023 237.41 4.36686 236.676 3.53146C235.942 2.69606 234.916 2.27836 233.6 2.27836H226.689C225.93 2.27836 225.436 2.42265 225.208 2.71125C224.98 3.0049 224.866 3.41754 224.866 3.94916V12.6069H232.461C232.841 12.6069 233.132 12.5867 233.334 12.5462C233.537 12.5107 233.719 12.3791 233.881 12.1512C234.048 11.9234 234.132 11.5943 234.132 11.164V9.41722H235.271V17.3155H234.132V15.7207C234.132 15.0878 233.992 14.6777 233.714 14.4904C233.436 14.298 233.018 14.2018 232.461 14.2018H224.866V23.9987C224.866 24.5303 224.98 24.9404 225.208 25.229C225.436 25.5227 225.93 25.6695 226.689 25.6695H233.904C235.246 25.6695 236.428 25.2392 237.451 24.3784C238.478 23.5177 239.018 22.6823 239.068 21.8722L240.131 22.0241Z" fill="black"/>
</svg>
