<svg width="164" height="194" viewBox="0 0 164 194" fill="none" xmlns="http://www.w3.org/2000/svg">
<path d="M21.6722 1.05148C24.251 1.05148 26.8052 1.28015 29.3363 1.73649H11.817C14.9889 1.28015 18.2747 1.05148 21.6722 1.05148ZM4.50933 192.422C2.98662 192.422 1.48326 192.369 0 192.264H9.20324C7.66267 192.369 6.09827 192.422 4.50933 192.422ZM130.487 194C126.679 194 122.978 193.421 119.384 192.264H143.979C139.553 193.421 135.056 194 130.487 194ZM152.039 0C155.493 0 159.48 0.579164 164 1.73649H150.934H137.868C142.45 0.579164 147.173 0 152.039 0Z" fill="#FF9900"/>
</svg>
