<svg width="98" height="98" viewBox="0 0 98 98" fill="none" xmlns="http://www.w3.org/2000/svg">
<circle cx="49.0002" cy="49" r="49" fill="#FF9900"/>
<g clip-path="url(#clip0_102_883)">
<path d="M62.1621 72.4966C64.3432 72.4028 66.3005 72.5287 68.1742 72.4127C68.4914 71.8744 68.4004 71.43 68.4004 71.0078C68.4078 67.1758 68.4078 63.3464 68.4053 59.5144C68.4004 54.7368 68.5381 49.9519 68.3439 45.1792C68.0365 37.5647 64.4858 31.8045 57.8516 28.0713C53.7574 25.7677 49.3141 25.0813 44.7233 26.0146C37.9956 27.3799 33.1466 31.2613 30.2131 37.5055C29.0746 39.93 28.5041 42.5028 28.4943 45.1891C28.4771 50.9148 28.4771 56.6405 28.4721 62.3686C28.4697 65.2525 28.4721 68.1338 28.4795 71.0177C28.482 71.4423 28.4107 71.8818 28.6492 72.3583C29.6377 72.5657 30.6581 72.4324 31.6688 72.4571C32.6425 72.4818 33.6163 72.4546 34.5482 72.467C34.6908 72.8003 34.4966 72.9312 34.3736 73.0596C32.5933 74.8965 30.8106 76.731 29.0107 78.5482C28.8336 78.7285 28.541 78.8939 28.3 78.8939C26.3353 78.8939 24.3682 78.8519 22.4035 78.8173C22.3322 78.8149 22.2633 78.7531 22.1355 78.6889C22.101 78.5013 22.0445 78.2766 22.0248 78.0495C22.0051 77.8149 22.0174 77.5754 22.0174 77.3384C22.015 66.7536 21.9707 56.1714 22.0223 45.5866C22.0617 37.4635 25.2239 30.7255 31.3098 25.3899C34.8556 22.2789 38.9841 20.321 43.602 19.4716C48.092 18.6445 52.5624 18.8815 56.8803 20.3852C64.1047 22.8987 69.3988 27.6565 72.6323 34.6364C74.2453 38.1178 75.0051 41.809 75.0002 45.6607C74.9855 56.2454 74.9953 66.8277 74.9928 77.4125C74.9928 77.8791 75.0494 78.3532 74.8896 78.8643C74.6978 78.9087 74.5134 78.9852 74.3314 78.9852C72.561 78.9976 70.7905 78.9902 69.0225 79.0025C68.5627 79.005 68.189 78.8692 67.8619 78.5334C66.1628 76.7853 64.4489 75.0471 62.7498 73.299C62.5654 73.1114 62.435 72.8744 62.1621 72.4966Z" fill="white"/>
<path d="M61.6802 73.6645C61.3285 73.7015 61.0998 73.7484 60.8712 73.7484C59.2188 73.7533 57.5663 73.7435 55.9139 73.7484C55.5082 73.7509 55.164 73.6867 54.8492 73.3731C52.8944 71.43 50.9198 69.5041 48.9576 67.5709C48.8814 67.4943 48.8469 67.3734 48.8002 67.282C48.9133 67.0351 49.1223 67.0598 49.3141 67.0623C50.8092 67.0796 52.3042 67.1067 53.7968 67.124C54.1804 67.1289 54.5837 67.2376 55.0091 66.9438C55.0361 66.6845 55.0927 66.3808 55.0927 66.0747C55.0976 59.7144 55.0877 53.3542 55.0976 46.9964C55.1049 42.7522 50.9444 39.4856 46.8159 40.5942C43.661 41.4411 41.8758 44.2089 41.7996 46.7693C41.7873 47.1643 41.7775 47.5594 41.78 47.9544C41.78 53.8406 41.7824 59.7268 41.7873 65.6105C41.7873 66.0376 41.8095 66.4672 41.8218 66.8771C42.5398 67.1981 43.2184 67.0425 43.875 67.0721C44.5413 67.1018 45.2126 67.0746 45.8815 67.0894C46.5478 67.1042 47.2117 67.1388 47.9912 67.1684C47.8904 67.4178 47.8683 67.6203 47.7552 67.7338C45.97 69.5708 44.175 71.3979 42.3799 73.225C42.0972 73.5114 41.7873 73.7213 41.3496 73.7114C39.5399 73.6719 37.7301 73.6571 35.9228 73.6225C35.7728 73.62 35.6203 73.5534 35.4875 73.5213C35.1752 73.1089 35.2908 72.6596 35.2908 72.2398C35.2761 69.2375 35.2761 66.2351 35.2761 63.2328C35.2736 58.1367 35.2736 53.0406 35.2761 47.9445C35.2761 46.3199 35.3769 44.7101 35.8834 43.1472C37.1891 39.1128 39.7612 36.2364 43.6955 34.671C51.6919 31.4909 60.6818 36.7722 61.6703 45.5891C61.7195 46.0187 61.7293 46.4557 61.7293 46.8903C61.7343 55.4232 61.7343 63.9562 61.7318 72.4867C61.7293 72.8398 61.6998 73.1904 61.6802 73.6645Z" fill="white"/>
</g>
<defs>
<clipPath id="clip0_102_883">
<rect width="53" height="60" fill="white" transform="translate(22.0002 19)"/>
</clipPath>
</defs>
</svg>
