<svg width="375" height="236" viewBox="0 0 375 236" fill="none" xmlns="http://www.w3.org/2000/svg">
<path fill-rule="evenodd" clip-rule="evenodd" d="M191.807 0V18.6142H198.41V91.0501H207.082V68.7429H211.65V63.3547L221.641 68.7429H224.089V55.3423L236.043 35.9197L247.997 55.3423V100.913H253.608V109.769H261.888V73.6263H268.75L268.465 58.63H276.406V54.3349H284.452L285.69 28.3619L286.927 54.3349H288.475V58.63H290.563L289.798 98.7916H291.28V81.0731L307.916 68.7429V91.0501H324.553V73.6263H334.822V63.3547L352.414 78.9431V63.3547L376 84.2553V237H358.409H352.414H335.572H334.822H324.553H307.916H291.28H287.832H272.908H271.196H262.851H261.888H247.997H238.942H224.089H207.082H198.41H183.711H177.427H162.688H158.692H145.157H137.788H125.883H121.57H115.431H104.979H102.296H91.8442H86.204H81.3919H62.6184H54.8402H44.7236H34.6058H26.8169H24.4892H13.1894H10.1808H0V88.1382H8.01163L7.44998 58.63H24.4892V15.9155H34.6058V24.9953H44.7236V33.3083H54.8402V76.167H62.6184V56.2403H65.388V54.0427H83.4338V56.2403H86.204V97.7911H91.8442V44.3898H94.615V42.1922H112.66V44.3898H115.431V75.1407H121.57V56.2403H124.341V54.0427H142.386V56.2403H145.157V63.3547L150.948 71.1819V84.3047H158.692V76.167H162.688V56.2403H177.427V44.443L183.711 37.7142V18.6142H190.314V0H191.807Z" fill="#FF9900" fill-opacity="0.39"/>
</svg>
